G75*
%MOIN*%
%OFA0B0*%
%FSLAX25Y25*%
%IPPOS*%
%LPD*%
%AMOC8*
5,1,8,0,0,1.08239X$1,22.5*
%
%ADD10C,0.00000*%
%ADD11OC8,0.05200*%
%ADD12C,0.05200*%
%ADD13C,0.05150*%
%ADD14C,0.11220*%
%ADD15C,0.05200*%
%ADD16C,0.05937*%
%ADD17C,0.07400*%
%ADD18C,0.01600*%
%ADD19C,0.03962*%
D10*
X0001800Y0001800D02*
X0001800Y0198650D01*
X0198650Y0198650D01*
X0198650Y0001800D01*
X0001800Y0001800D01*
D11*
X0041800Y0066800D03*
X0041800Y0076800D03*
X0071800Y0041800D03*
X0071800Y0031800D03*
X0111800Y0031800D03*
X0111800Y0041800D03*
X0126800Y0046800D03*
X0136800Y0046800D03*
X0136800Y0056800D03*
X0126800Y0056800D03*
X0126800Y0031800D03*
X0136800Y0031800D03*
X0161800Y0046800D03*
X0169300Y0051800D03*
X0161800Y0056800D03*
X0156800Y0071800D03*
X0166800Y0071800D03*
X0126800Y0096800D03*
X0151800Y0116800D03*
X0151800Y0156800D03*
X0151800Y0176800D03*
X0151800Y0186800D03*
X0131800Y0166800D03*
X0041800Y0156800D03*
X0041800Y0116800D03*
D12*
X0126800Y0116800D03*
X0131800Y0186800D03*
D13*
X0175501Y0161721D03*
X0178650Y0166446D03*
X0181800Y0161721D03*
X0184950Y0166446D03*
X0188099Y0161721D03*
X0186800Y0044674D03*
X0186800Y0036800D03*
X0186800Y0028926D03*
D14*
X0196170Y0181800D03*
X0167430Y0181800D03*
D15*
X0109400Y0176800D02*
X0104200Y0176800D01*
X0104200Y0166800D02*
X0109400Y0166800D01*
X0109400Y0156800D02*
X0104200Y0156800D01*
X0104200Y0146800D02*
X0109400Y0146800D01*
X0109400Y0136800D02*
X0104200Y0136800D01*
X0104200Y0126800D02*
X0109400Y0126800D01*
X0109400Y0116800D02*
X0104200Y0116800D01*
X0104200Y0106800D02*
X0109400Y0106800D01*
X0109400Y0096800D02*
X0104200Y0096800D01*
X0104200Y0086800D02*
X0109400Y0086800D01*
X0109400Y0076800D02*
X0104200Y0076800D01*
X0104200Y0066800D02*
X0109400Y0066800D01*
X0109400Y0056800D02*
X0104200Y0056800D01*
X0079400Y0056800D02*
X0074200Y0056800D01*
X0074200Y0066800D02*
X0079400Y0066800D01*
X0079400Y0076800D02*
X0074200Y0076800D01*
X0074200Y0086800D02*
X0079400Y0086800D01*
X0079400Y0096800D02*
X0074200Y0096800D01*
X0074200Y0106800D02*
X0079400Y0106800D01*
X0079400Y0116800D02*
X0074200Y0116800D01*
X0074200Y0126800D02*
X0079400Y0126800D01*
X0079400Y0136800D02*
X0074200Y0136800D01*
X0074200Y0146800D02*
X0079400Y0146800D01*
X0079400Y0156800D02*
X0074200Y0156800D01*
X0074200Y0166800D02*
X0079400Y0166800D01*
X0079400Y0176800D02*
X0074200Y0176800D01*
X0074200Y0186800D02*
X0079400Y0186800D01*
X0104200Y0186800D02*
X0109400Y0186800D01*
D16*
X0186800Y0052548D03*
X0186800Y0021052D03*
D17*
X0146800Y0011800D03*
X0126800Y0011800D03*
X0101800Y0011800D03*
X0081800Y0011800D03*
X0006800Y0066800D03*
X0006800Y0076800D03*
X0006800Y0086800D03*
X0006800Y0096800D03*
X0006800Y0106800D03*
X0006800Y0116800D03*
X0006800Y0126800D03*
X0006800Y0136800D03*
X0006800Y0146800D03*
X0006800Y0156800D03*
X0006800Y0166800D03*
X0006800Y0176800D03*
X0006800Y0186800D03*
X0061800Y0116800D03*
X0061800Y0106800D03*
X0061800Y0096800D03*
X0193800Y0096800D03*
X0193800Y0086800D03*
X0193800Y0076800D03*
X0193800Y0066800D03*
X0193800Y0106800D03*
X0193800Y0116800D03*
X0193800Y0126800D03*
X0193800Y0136800D03*
D18*
X0190699Y0141469D02*
X0190699Y0158134D01*
X0191808Y0159243D01*
X0192474Y0160851D01*
X0192474Y0162591D01*
X0191808Y0164199D01*
X0190577Y0165430D01*
X0189324Y0165949D01*
X0189324Y0167316D01*
X0188658Y0168924D01*
X0187428Y0170154D01*
X0185820Y0170820D01*
X0184079Y0170820D01*
X0183922Y0170755D01*
X0181852Y0172825D01*
X0180897Y0173220D01*
X0176404Y0173220D01*
X0175448Y0172825D01*
X0164596Y0161972D01*
X0164200Y0161017D01*
X0164200Y0149547D01*
X0163595Y0148942D01*
X0163019Y0147552D01*
X0163019Y0146048D01*
X0163595Y0144658D01*
X0164658Y0143595D01*
X0166048Y0143019D01*
X0167552Y0143019D01*
X0168942Y0143595D01*
X0170005Y0144658D01*
X0170581Y0146048D01*
X0170581Y0147552D01*
X0170005Y0148942D01*
X0169400Y0149547D01*
X0169400Y0159422D01*
X0171157Y0161180D01*
X0171234Y0160697D01*
X0171446Y0160042D01*
X0171759Y0159428D01*
X0172164Y0158871D01*
X0172651Y0158384D01*
X0173208Y0157980D01*
X0173821Y0157667D01*
X0174476Y0157454D01*
X0175156Y0157346D01*
X0175501Y0157346D01*
X0175845Y0157346D01*
X0176525Y0157454D01*
X0177180Y0157667D01*
X0177794Y0157980D01*
X0178351Y0158384D01*
X0178650Y0158684D01*
X0179200Y0158134D01*
X0179200Y0124547D01*
X0178595Y0123942D01*
X0178019Y0122552D01*
X0178019Y0121048D01*
X0178595Y0119658D01*
X0179658Y0118595D01*
X0181048Y0118019D01*
X0182552Y0118019D01*
X0183942Y0118595D01*
X0185005Y0119658D01*
X0185499Y0120850D01*
X0185499Y0057192D01*
X0185507Y0057174D01*
X0184099Y0056591D01*
X0182757Y0055249D01*
X0182031Y0053497D01*
X0182031Y0051600D01*
X0182757Y0049847D01*
X0184099Y0048505D01*
X0184358Y0048398D01*
X0184322Y0048383D01*
X0183091Y0047152D01*
X0182425Y0045544D01*
X0182425Y0043804D01*
X0183091Y0042196D01*
X0184322Y0040965D01*
X0184873Y0040737D01*
X0184322Y0040509D01*
X0183091Y0039278D01*
X0182425Y0037670D01*
X0182425Y0036978D01*
X0171900Y0047503D01*
X0171900Y0048177D01*
X0173700Y0049977D01*
X0173700Y0053623D01*
X0171123Y0056200D01*
X0169400Y0056200D01*
X0169400Y0059053D01*
X0170005Y0059658D01*
X0170581Y0061048D01*
X0170581Y0062552D01*
X0170005Y0063942D01*
X0169400Y0064547D01*
X0169400Y0068177D01*
X0171200Y0069977D01*
X0171200Y0073623D01*
X0168623Y0076200D01*
X0164977Y0076200D01*
X0162400Y0073623D01*
X0162400Y0069977D01*
X0164200Y0068177D01*
X0164200Y0064547D01*
X0163595Y0063942D01*
X0163019Y0062552D01*
X0163019Y0061200D01*
X0161800Y0061200D01*
X0161800Y0056800D01*
X0161800Y0056800D01*
X0161800Y0052400D01*
X0163623Y0052400D01*
X0164436Y0053213D01*
X0164596Y0052827D01*
X0164900Y0052523D01*
X0164900Y0049977D01*
X0166700Y0048177D01*
X0166700Y0045909D01*
X0167096Y0044953D01*
X0182425Y0029624D01*
X0182425Y0028056D01*
X0183091Y0026448D01*
X0184322Y0025217D01*
X0184358Y0025202D01*
X0184099Y0025095D01*
X0182757Y0023753D01*
X0182031Y0022000D01*
X0182031Y0020103D01*
X0182757Y0018351D01*
X0184099Y0017009D01*
X0185851Y0016283D01*
X0187749Y0016283D01*
X0189501Y0017009D01*
X0190843Y0018351D01*
X0191568Y0020103D01*
X0191568Y0022000D01*
X0190843Y0023753D01*
X0189501Y0025095D01*
X0189241Y0025202D01*
X0189278Y0025217D01*
X0190509Y0026448D01*
X0191175Y0028056D01*
X0191175Y0029796D01*
X0190509Y0031404D01*
X0189278Y0032635D01*
X0188727Y0032863D01*
X0189278Y0033091D01*
X0190509Y0034322D01*
X0191175Y0035930D01*
X0191175Y0037670D01*
X0190648Y0038941D01*
X0192841Y0041134D01*
X0193573Y0041866D01*
X0193850Y0042536D01*
X0193850Y0006600D01*
X0148594Y0006600D01*
X0148911Y0006703D01*
X0149683Y0007096D01*
X0150383Y0007605D01*
X0150995Y0008217D01*
X0151504Y0008917D01*
X0151897Y0009689D01*
X0152165Y0010512D01*
X0152300Y0011367D01*
X0152300Y0011600D01*
X0147000Y0011600D01*
X0147000Y0012000D01*
X0146600Y0012000D01*
X0146600Y0017300D01*
X0146367Y0017300D01*
X0145512Y0017165D01*
X0144689Y0016897D01*
X0143917Y0016504D01*
X0143217Y0015995D01*
X0142605Y0015383D01*
X0142096Y0014683D01*
X0141703Y0013911D01*
X0141435Y0013088D01*
X0141300Y0012233D01*
X0141300Y0012000D01*
X0146600Y0012000D01*
X0146600Y0011600D01*
X0141300Y0011600D01*
X0141300Y0011367D01*
X0141435Y0010512D01*
X0141703Y0009689D01*
X0142096Y0008917D01*
X0142605Y0008217D01*
X0143217Y0007605D01*
X0143917Y0007096D01*
X0144689Y0006703D01*
X0145006Y0006600D01*
X0128618Y0006600D01*
X0129915Y0007137D01*
X0131463Y0008684D01*
X0132300Y0010706D01*
X0132300Y0012894D01*
X0131463Y0014915D01*
X0129915Y0016463D01*
X0127894Y0017300D01*
X0125706Y0017300D01*
X0125190Y0017086D01*
X0119400Y0022877D01*
X0119400Y0037317D01*
X0119004Y0038273D01*
X0118273Y0039004D01*
X0116200Y0041077D01*
X0116200Y0043623D01*
X0113623Y0046200D01*
X0111077Y0046200D01*
X0104877Y0052400D01*
X0110275Y0052400D01*
X0111892Y0053070D01*
X0113130Y0054308D01*
X0113800Y0055925D01*
X0113800Y0057675D01*
X0113130Y0059292D01*
X0111892Y0060530D01*
X0110275Y0061200D01*
X0103325Y0061200D01*
X0101708Y0060530D01*
X0100470Y0059292D01*
X0099800Y0057675D01*
X0099800Y0057477D01*
X0099400Y0057877D01*
X0099400Y0184053D01*
X0100005Y0184658D01*
X0100165Y0185043D01*
X0100470Y0184308D01*
X0101708Y0183070D01*
X0103325Y0182400D01*
X0110275Y0182400D01*
X0111892Y0183070D01*
X0113130Y0184308D01*
X0113800Y0185925D01*
X0113800Y0187675D01*
X0113130Y0189292D01*
X0111892Y0190530D01*
X0110275Y0191200D01*
X0103325Y0191200D01*
X0101708Y0190530D01*
X0100470Y0189292D01*
X0100165Y0188556D01*
X0100005Y0188942D01*
X0098942Y0190005D01*
X0097552Y0190581D01*
X0096048Y0190581D01*
X0094658Y0190005D01*
X0093595Y0188942D01*
X0093019Y0187552D01*
X0093019Y0186048D01*
X0093595Y0184658D01*
X0094200Y0184053D01*
X0094200Y0164747D01*
X0093942Y0165005D01*
X0092552Y0165581D01*
X0091048Y0165581D01*
X0089658Y0165005D01*
X0089400Y0164747D01*
X0089400Y0179053D01*
X0090005Y0179658D01*
X0090581Y0181048D01*
X0090581Y0182552D01*
X0090005Y0183942D01*
X0088942Y0185005D01*
X0087552Y0185581D01*
X0086048Y0185581D01*
X0084658Y0185005D01*
X0083595Y0183942D01*
X0083019Y0182552D01*
X0083019Y0181048D01*
X0083595Y0179658D01*
X0084200Y0179053D01*
X0084200Y0139547D01*
X0083595Y0138942D01*
X0083435Y0138556D01*
X0083130Y0139292D01*
X0081892Y0140530D01*
X0080275Y0141200D01*
X0073325Y0141200D01*
X0071708Y0140530D01*
X0070470Y0139292D01*
X0069800Y0137675D01*
X0069800Y0135925D01*
X0070470Y0134308D01*
X0071708Y0133070D01*
X0073325Y0132400D01*
X0080275Y0132400D01*
X0081892Y0133070D01*
X0083130Y0134308D01*
X0083435Y0135043D01*
X0083595Y0134658D01*
X0084200Y0134053D01*
X0084200Y0084547D01*
X0083595Y0083942D01*
X0083019Y0082552D01*
X0083019Y0081048D01*
X0083595Y0079658D01*
X0084200Y0079053D01*
X0084200Y0077877D01*
X0083800Y0077477D01*
X0083800Y0077675D01*
X0083130Y0079292D01*
X0081892Y0080530D01*
X0080275Y0081200D01*
X0073325Y0081200D01*
X0071708Y0080530D01*
X0070470Y0079292D01*
X0069800Y0077675D01*
X0069800Y0075925D01*
X0070470Y0074308D01*
X0071708Y0073070D01*
X0073325Y0072400D01*
X0078723Y0072400D01*
X0077523Y0071200D01*
X0073325Y0071200D01*
X0071708Y0070530D01*
X0070470Y0069292D01*
X0069800Y0067675D01*
X0069800Y0065925D01*
X0070470Y0064308D01*
X0071708Y0063070D01*
X0073325Y0062400D01*
X0078723Y0062400D01*
X0077523Y0061200D01*
X0073325Y0061200D01*
X0071708Y0060530D01*
X0070470Y0059292D01*
X0070165Y0058556D01*
X0070005Y0058942D01*
X0068942Y0060005D01*
X0067552Y0060581D01*
X0066048Y0060581D01*
X0064658Y0060005D01*
X0063595Y0058942D01*
X0063019Y0057552D01*
X0063019Y0056048D01*
X0063595Y0054658D01*
X0064658Y0053595D01*
X0066048Y0053019D01*
X0066904Y0053019D01*
X0069200Y0050723D01*
X0069200Y0045423D01*
X0067400Y0043623D01*
X0067400Y0039977D01*
X0069200Y0038177D01*
X0069200Y0035423D01*
X0067400Y0033623D01*
X0067400Y0029977D01*
X0069977Y0027400D01*
X0073623Y0027400D01*
X0076200Y0029977D01*
X0076200Y0033623D01*
X0074400Y0035423D01*
X0074400Y0038177D01*
X0076200Y0039977D01*
X0076200Y0043623D01*
X0074400Y0045423D01*
X0074400Y0052317D01*
X0074366Y0052400D01*
X0080275Y0052400D01*
X0081892Y0053070D01*
X0083130Y0054308D01*
X0083800Y0055925D01*
X0083800Y0057675D01*
X0083130Y0059292D01*
X0083050Y0059373D01*
X0094004Y0070327D01*
X0094200Y0070800D01*
X0094200Y0056283D01*
X0094596Y0055327D01*
X0107400Y0042523D01*
X0107400Y0039977D01*
X0109977Y0037400D01*
X0112523Y0037400D01*
X0114200Y0035723D01*
X0114200Y0035623D01*
X0113623Y0036200D01*
X0109977Y0036200D01*
X0108177Y0034400D01*
X0101283Y0034400D01*
X0100327Y0034004D01*
X0083410Y0017086D01*
X0082894Y0017300D01*
X0080706Y0017300D01*
X0078684Y0016463D01*
X0077137Y0014915D01*
X0076300Y0012894D01*
X0076300Y0010706D01*
X0077137Y0008684D01*
X0078684Y0007137D01*
X0079982Y0006600D01*
X0006600Y0006600D01*
X0006600Y0066600D01*
X0007000Y0066600D01*
X0007000Y0067000D01*
X0012300Y0067000D01*
X0012300Y0067233D01*
X0012165Y0068088D01*
X0011897Y0068911D01*
X0011504Y0069683D01*
X0010995Y0070383D01*
X0010383Y0070995D01*
X0009683Y0071504D01*
X0009101Y0071800D01*
X0009915Y0072137D01*
X0011463Y0073684D01*
X0012300Y0075706D01*
X0012300Y0077894D01*
X0011463Y0079915D01*
X0009915Y0081463D01*
X0009101Y0081800D01*
X0009915Y0082137D01*
X0011463Y0083684D01*
X0012300Y0085706D01*
X0012300Y0087894D01*
X0011463Y0089915D01*
X0009915Y0091463D01*
X0009101Y0091800D01*
X0009915Y0092137D01*
X0011463Y0093684D01*
X0012300Y0095706D01*
X0012300Y0097894D01*
X0011463Y0099915D01*
X0009915Y0101463D01*
X0009101Y0101800D01*
X0009915Y0102137D01*
X0011463Y0103684D01*
X0012300Y0105706D01*
X0012300Y0107894D01*
X0011463Y0109915D01*
X0009915Y0111463D01*
X0009101Y0111800D01*
X0009915Y0112137D01*
X0011463Y0113684D01*
X0012300Y0115706D01*
X0012300Y0117894D01*
X0011463Y0119915D01*
X0009915Y0121463D01*
X0009101Y0121800D01*
X0009915Y0122137D01*
X0011463Y0123684D01*
X0012300Y0125706D01*
X0012300Y0127894D01*
X0011463Y0129915D01*
X0009915Y0131463D01*
X0009101Y0131800D01*
X0009915Y0132137D01*
X0011463Y0133684D01*
X0012300Y0135706D01*
X0012300Y0137894D01*
X0011463Y0139915D01*
X0009915Y0141463D01*
X0009101Y0141800D01*
X0009915Y0142137D01*
X0011463Y0143684D01*
X0012300Y0145706D01*
X0012300Y0147894D01*
X0011463Y0149915D01*
X0009915Y0151463D01*
X0009101Y0151800D01*
X0009915Y0152137D01*
X0011463Y0153684D01*
X0012300Y0155706D01*
X0012300Y0157894D01*
X0011463Y0159915D01*
X0009915Y0161463D01*
X0009101Y0161800D01*
X0009683Y0162096D01*
X0010383Y0162605D01*
X0010995Y0163217D01*
X0011504Y0163917D01*
X0011897Y0164689D01*
X0012165Y0165512D01*
X0012300Y0166367D01*
X0012300Y0166600D01*
X0007000Y0166600D01*
X0007000Y0167000D01*
X0012300Y0167000D01*
X0012300Y0167233D01*
X0012165Y0168088D01*
X0011897Y0168911D01*
X0011504Y0169683D01*
X0010995Y0170383D01*
X0010383Y0170995D01*
X0009683Y0171504D01*
X0009101Y0171800D01*
X0009915Y0172137D01*
X0011463Y0173684D01*
X0012300Y0175706D01*
X0012300Y0177894D01*
X0011463Y0179915D01*
X0009915Y0181463D01*
X0009101Y0181800D01*
X0009915Y0182137D01*
X0011463Y0183684D01*
X0012300Y0185706D01*
X0012300Y0187894D01*
X0011463Y0189915D01*
X0009915Y0191463D01*
X0007894Y0192300D01*
X0006600Y0192300D01*
X0006600Y0193850D01*
X0193850Y0193850D01*
X0193850Y0188860D01*
X0191973Y0188082D01*
X0189888Y0185998D01*
X0188760Y0183274D01*
X0188760Y0180326D01*
X0189888Y0177602D01*
X0191973Y0175518D01*
X0193850Y0174740D01*
X0193850Y0142300D01*
X0192706Y0142300D01*
X0190699Y0141469D01*
X0190699Y0142469D02*
X0193850Y0142469D01*
X0193850Y0144068D02*
X0190699Y0144068D01*
X0190699Y0145666D02*
X0193850Y0145666D01*
X0193850Y0147265D02*
X0190699Y0147265D01*
X0190699Y0148863D02*
X0193850Y0148863D01*
X0193850Y0150462D02*
X0190699Y0150462D01*
X0190699Y0152060D02*
X0193850Y0152060D01*
X0193850Y0153659D02*
X0190699Y0153659D01*
X0190699Y0155257D02*
X0193850Y0155257D01*
X0193850Y0156856D02*
X0190699Y0156856D01*
X0191019Y0158454D02*
X0193850Y0158454D01*
X0193850Y0160053D02*
X0192143Y0160053D01*
X0192474Y0161651D02*
X0193850Y0161651D01*
X0193850Y0163250D02*
X0192201Y0163250D01*
X0191159Y0164848D02*
X0193850Y0164848D01*
X0193850Y0166447D02*
X0189324Y0166447D01*
X0189022Y0168045D02*
X0193850Y0168045D01*
X0193850Y0169644D02*
X0187938Y0169644D01*
X0184950Y0166446D02*
X0184554Y0166446D01*
X0180380Y0170620D01*
X0176921Y0170620D01*
X0166800Y0160499D01*
X0166800Y0146800D01*
X0164185Y0144068D02*
X0133209Y0144068D01*
X0131611Y0145666D02*
X0163177Y0145666D01*
X0163019Y0147265D02*
X0130012Y0147265D01*
X0128414Y0148863D02*
X0163562Y0148863D01*
X0164200Y0150462D02*
X0126815Y0150462D01*
X0125217Y0152060D02*
X0164200Y0152060D01*
X0164200Y0153659D02*
X0154881Y0153659D01*
X0153623Y0152400D02*
X0156200Y0154977D01*
X0156200Y0158623D01*
X0154400Y0160423D01*
X0154400Y0173177D01*
X0156200Y0174977D01*
X0156200Y0178623D01*
X0153623Y0181200D01*
X0149977Y0181200D01*
X0147400Y0178623D01*
X0147400Y0174977D01*
X0149200Y0173177D01*
X0149200Y0160423D01*
X0147400Y0158623D01*
X0147400Y0154977D01*
X0149977Y0152400D01*
X0153623Y0152400D01*
X0156200Y0155257D02*
X0164200Y0155257D01*
X0164200Y0156856D02*
X0156200Y0156856D01*
X0156200Y0158454D02*
X0164200Y0158454D01*
X0164200Y0160053D02*
X0154770Y0160053D01*
X0154400Y0161651D02*
X0164463Y0161651D01*
X0165873Y0163250D02*
X0154400Y0163250D01*
X0154400Y0164848D02*
X0167472Y0164848D01*
X0169070Y0166447D02*
X0154400Y0166447D01*
X0154400Y0168045D02*
X0170669Y0168045D01*
X0172267Y0169644D02*
X0154400Y0169644D01*
X0154400Y0171242D02*
X0173866Y0171242D01*
X0175487Y0172841D02*
X0154400Y0172841D01*
X0155662Y0174439D02*
X0165837Y0174439D01*
X0165956Y0174390D02*
X0168904Y0174390D01*
X0171627Y0175518D01*
X0173712Y0177602D01*
X0174840Y0180326D01*
X0174840Y0183274D01*
X0173712Y0185998D01*
X0171627Y0188082D01*
X0168904Y0189210D01*
X0165956Y0189210D01*
X0163232Y0188082D01*
X0161148Y0185998D01*
X0160020Y0183274D01*
X0160020Y0180326D01*
X0161148Y0177602D01*
X0163232Y0175518D01*
X0165956Y0174390D01*
X0169023Y0174439D02*
X0193850Y0174439D01*
X0193850Y0172841D02*
X0181814Y0172841D01*
X0183435Y0171242D02*
X0193850Y0171242D01*
X0191453Y0176038D02*
X0172147Y0176038D01*
X0173726Y0177636D02*
X0189874Y0177636D01*
X0189212Y0179235D02*
X0174388Y0179235D01*
X0174840Y0180833D02*
X0188760Y0180833D01*
X0188760Y0182432D02*
X0174840Y0182432D01*
X0174527Y0184030D02*
X0189073Y0184030D01*
X0189735Y0185629D02*
X0173865Y0185629D01*
X0172482Y0187227D02*
X0191118Y0187227D01*
X0193768Y0188826D02*
X0169832Y0188826D01*
X0165028Y0188826D02*
X0155997Y0188826D01*
X0156200Y0188623D02*
X0153623Y0191200D01*
X0149977Y0191200D01*
X0147400Y0188623D01*
X0147400Y0184977D01*
X0149977Y0182400D01*
X0153623Y0182400D01*
X0156200Y0184977D01*
X0156200Y0188623D01*
X0156200Y0187227D02*
X0162378Y0187227D01*
X0160995Y0185629D02*
X0156200Y0185629D01*
X0155253Y0184030D02*
X0160333Y0184030D01*
X0160020Y0182432D02*
X0153654Y0182432D01*
X0153989Y0180833D02*
X0160020Y0180833D01*
X0160472Y0179235D02*
X0155588Y0179235D01*
X0156200Y0177636D02*
X0161134Y0177636D01*
X0162713Y0176038D02*
X0156200Y0176038D01*
X0151800Y0176800D02*
X0151800Y0156800D01*
X0148719Y0153659D02*
X0123618Y0153659D01*
X0122020Y0155257D02*
X0147400Y0155257D01*
X0147400Y0156856D02*
X0120421Y0156856D01*
X0118823Y0158454D02*
X0147400Y0158454D01*
X0148830Y0160053D02*
X0117224Y0160053D01*
X0115626Y0161651D02*
X0149200Y0161651D01*
X0149200Y0163250D02*
X0134472Y0163250D01*
X0133623Y0162400D02*
X0136200Y0164977D01*
X0136200Y0166800D01*
X0136200Y0168623D01*
X0133623Y0171200D01*
X0131800Y0171200D01*
X0131800Y0166800D01*
X0131800Y0166800D01*
X0136200Y0166800D01*
X0131800Y0166800D01*
X0131800Y0166800D01*
X0131800Y0166800D01*
X0127400Y0166800D01*
X0127400Y0168623D01*
X0129977Y0171200D01*
X0131800Y0171200D01*
X0131800Y0166800D01*
X0131800Y0162400D01*
X0133623Y0162400D01*
X0131800Y0162400D02*
X0131800Y0166800D01*
X0131800Y0166800D01*
X0127400Y0166800D01*
X0127400Y0164977D01*
X0129977Y0162400D01*
X0131800Y0162400D01*
X0131800Y0163250D02*
X0131800Y0163250D01*
X0131800Y0164848D02*
X0131800Y0164848D01*
X0131800Y0166447D02*
X0131800Y0166447D01*
X0131800Y0168045D02*
X0131800Y0168045D01*
X0131800Y0169644D02*
X0131800Y0169644D01*
X0135179Y0169644D02*
X0149200Y0169644D01*
X0149200Y0171242D02*
X0099400Y0171242D01*
X0099400Y0169644D02*
X0100821Y0169644D01*
X0100470Y0169292D02*
X0099800Y0167675D01*
X0099800Y0165925D01*
X0100470Y0164308D01*
X0101708Y0163070D01*
X0103325Y0162400D01*
X0107523Y0162400D01*
X0108723Y0161200D01*
X0103325Y0161200D01*
X0101708Y0160530D01*
X0100470Y0159292D01*
X0099800Y0157675D01*
X0099800Y0155925D01*
X0100470Y0154308D01*
X0101708Y0153070D01*
X0103325Y0152400D01*
X0107523Y0152400D01*
X0108723Y0151200D01*
X0103325Y0151200D01*
X0101708Y0150530D01*
X0100470Y0149292D01*
X0099800Y0147675D01*
X0099800Y0145925D01*
X0100470Y0144308D01*
X0101708Y0143070D01*
X0103325Y0142400D01*
X0107523Y0142400D01*
X0108723Y0141200D01*
X0103325Y0141200D01*
X0101708Y0140530D01*
X0100470Y0139292D01*
X0099800Y0137675D01*
X0099800Y0135925D01*
X0100470Y0134308D01*
X0101708Y0133070D01*
X0103325Y0132400D01*
X0110275Y0132400D01*
X0111892Y0133070D01*
X0113130Y0134308D01*
X0113800Y0135925D01*
X0113800Y0136123D01*
X0138019Y0111904D01*
X0138019Y0111048D01*
X0138595Y0109658D01*
X0139658Y0108595D01*
X0141048Y0108019D01*
X0142552Y0108019D01*
X0143942Y0108595D01*
X0145005Y0109658D01*
X0145581Y0111048D01*
X0145581Y0112552D01*
X0145005Y0113942D01*
X0143942Y0115005D01*
X0142552Y0115581D01*
X0141696Y0115581D01*
X0113050Y0144227D01*
X0113130Y0144308D01*
X0113800Y0145925D01*
X0113800Y0146123D01*
X0133019Y0126904D01*
X0133019Y0126048D01*
X0133595Y0124658D01*
X0134658Y0123595D01*
X0136048Y0123019D01*
X0137552Y0123019D01*
X0138942Y0123595D01*
X0140005Y0124658D01*
X0140581Y0126048D01*
X0140581Y0127552D01*
X0140005Y0128942D01*
X0138942Y0130005D01*
X0137552Y0130581D01*
X0136696Y0130581D01*
X0113050Y0154227D01*
X0113130Y0154308D01*
X0113800Y0155925D01*
X0113800Y0156123D01*
X0133019Y0136904D01*
X0133019Y0136048D01*
X0133595Y0134658D01*
X0134658Y0133595D01*
X0136048Y0133019D01*
X0137552Y0133019D01*
X0138942Y0133595D01*
X0140005Y0134658D01*
X0140581Y0136048D01*
X0140581Y0137552D01*
X0140005Y0138942D01*
X0138942Y0140005D01*
X0137552Y0140581D01*
X0136696Y0140581D01*
X0113050Y0164227D01*
X0113130Y0164308D01*
X0113800Y0165925D01*
X0113800Y0167675D01*
X0113130Y0169292D01*
X0111892Y0170530D01*
X0110275Y0171200D01*
X0103325Y0171200D01*
X0101708Y0170530D01*
X0100470Y0169292D01*
X0099953Y0168045D02*
X0099400Y0168045D01*
X0099400Y0166447D02*
X0099800Y0166447D01*
X0099400Y0164848D02*
X0100246Y0164848D01*
X0099400Y0163250D02*
X0101528Y0163250D01*
X0099400Y0161651D02*
X0108272Y0161651D01*
X0106800Y0156800D02*
X0136800Y0126800D01*
X0133019Y0126484D02*
X0130793Y0126484D01*
X0131841Y0128082D02*
X0129195Y0128082D01*
X0130242Y0129681D02*
X0127596Y0129681D01*
X0128644Y0131279D02*
X0125998Y0131279D01*
X0127045Y0132878D02*
X0124399Y0132878D01*
X0125447Y0134476D02*
X0122800Y0134476D01*
X0123848Y0136075D02*
X0121202Y0136075D01*
X0122250Y0137673D02*
X0119603Y0137673D01*
X0120651Y0139272D02*
X0118005Y0139272D01*
X0119053Y0140870D02*
X0116406Y0140870D01*
X0117454Y0142469D02*
X0114808Y0142469D01*
X0115856Y0144068D02*
X0113209Y0144068D01*
X0113693Y0145666D02*
X0114257Y0145666D01*
X0118414Y0148863D02*
X0121060Y0148863D01*
X0120012Y0147265D02*
X0122659Y0147265D01*
X0121611Y0145666D02*
X0124257Y0145666D01*
X0123209Y0144068D02*
X0125856Y0144068D01*
X0124808Y0142469D02*
X0127454Y0142469D01*
X0126406Y0140870D02*
X0129053Y0140870D01*
X0128005Y0139272D02*
X0130651Y0139272D01*
X0129603Y0137673D02*
X0132250Y0137673D01*
X0133019Y0136075D02*
X0131202Y0136075D01*
X0132800Y0134476D02*
X0133776Y0134476D01*
X0134399Y0132878D02*
X0179200Y0132878D01*
X0179200Y0134476D02*
X0139824Y0134476D01*
X0140581Y0136075D02*
X0179200Y0136075D01*
X0179200Y0137673D02*
X0140531Y0137673D01*
X0139675Y0139272D02*
X0179200Y0139272D01*
X0179200Y0140870D02*
X0136406Y0140870D01*
X0134808Y0142469D02*
X0179200Y0142469D01*
X0179200Y0144068D02*
X0169415Y0144068D01*
X0170423Y0145666D02*
X0179200Y0145666D01*
X0179200Y0147265D02*
X0170581Y0147265D01*
X0170038Y0148863D02*
X0179200Y0148863D01*
X0179200Y0150462D02*
X0169400Y0150462D01*
X0169400Y0152060D02*
X0179200Y0152060D01*
X0179200Y0153659D02*
X0169400Y0153659D01*
X0169400Y0155257D02*
X0179200Y0155257D01*
X0179200Y0156856D02*
X0169400Y0156856D01*
X0169400Y0158454D02*
X0172581Y0158454D01*
X0171443Y0160053D02*
X0170030Y0160053D01*
X0175501Y0160053D02*
X0175501Y0160053D01*
X0175501Y0161651D02*
X0175501Y0161651D01*
X0175501Y0161721D02*
X0175501Y0157346D01*
X0175501Y0161721D01*
X0175501Y0161721D01*
X0175501Y0158454D02*
X0175501Y0158454D01*
X0178421Y0158454D02*
X0178880Y0158454D01*
X0181800Y0161721D02*
X0181800Y0121800D01*
X0178323Y0123287D02*
X0138199Y0123287D01*
X0140100Y0124885D02*
X0179200Y0124885D01*
X0179200Y0126484D02*
X0140581Y0126484D01*
X0140361Y0128082D02*
X0179200Y0128082D01*
X0179200Y0129681D02*
X0139266Y0129681D01*
X0135998Y0131279D02*
X0179200Y0131279D01*
X0178019Y0121688D02*
X0135589Y0121688D01*
X0135401Y0123287D02*
X0133990Y0123287D01*
X0133500Y0124885D02*
X0132392Y0124885D01*
X0128235Y0121688D02*
X0099400Y0121688D01*
X0099400Y0120090D02*
X0101267Y0120090D01*
X0101708Y0120530D02*
X0100470Y0119292D01*
X0099800Y0117675D01*
X0099800Y0115925D01*
X0100470Y0114308D01*
X0101708Y0113070D01*
X0103325Y0112400D01*
X0110275Y0112400D01*
X0111892Y0113070D01*
X0113130Y0114308D01*
X0113800Y0115925D01*
X0113800Y0117675D01*
X0113130Y0119292D01*
X0111892Y0120530D01*
X0110275Y0121200D01*
X0103325Y0121200D01*
X0101708Y0120530D01*
X0103325Y0122400D02*
X0101708Y0123070D01*
X0100470Y0124308D01*
X0099800Y0125925D01*
X0099800Y0127675D01*
X0100470Y0129292D01*
X0101708Y0130530D01*
X0103325Y0131200D01*
X0110275Y0131200D01*
X0111892Y0130530D01*
X0113130Y0129292D01*
X0113800Y0127675D01*
X0113800Y0125925D01*
X0113130Y0124308D01*
X0111892Y0123070D01*
X0110275Y0122400D01*
X0103325Y0122400D01*
X0101491Y0123287D02*
X0099400Y0123287D01*
X0099400Y0124885D02*
X0100231Y0124885D01*
X0099800Y0126484D02*
X0099400Y0126484D01*
X0099400Y0128082D02*
X0099969Y0128082D01*
X0099400Y0129681D02*
X0100858Y0129681D01*
X0099400Y0131279D02*
X0118644Y0131279D01*
X0120242Y0129681D02*
X0112742Y0129681D01*
X0113631Y0128082D02*
X0121841Y0128082D01*
X0123439Y0126484D02*
X0113800Y0126484D01*
X0113369Y0124885D02*
X0125038Y0124885D01*
X0126636Y0123287D02*
X0112109Y0123287D01*
X0112333Y0120090D02*
X0123867Y0120090D01*
X0124308Y0120530D02*
X0123070Y0119292D01*
X0122400Y0117675D01*
X0122400Y0115925D01*
X0123070Y0114308D01*
X0124308Y0113070D01*
X0125925Y0112400D01*
X0127675Y0112400D01*
X0129292Y0113070D01*
X0130530Y0114308D01*
X0131200Y0115925D01*
X0131200Y0117675D01*
X0130530Y0119292D01*
X0129292Y0120530D01*
X0127675Y0121200D01*
X0125925Y0121200D01*
X0124308Y0120530D01*
X0122738Y0118491D02*
X0113462Y0118491D01*
X0113800Y0116893D02*
X0122400Y0116893D01*
X0122661Y0115294D02*
X0113539Y0115294D01*
X0112518Y0113696D02*
X0123682Y0113696D01*
X0129918Y0113696D02*
X0136227Y0113696D01*
X0134629Y0115294D02*
X0130939Y0115294D01*
X0131200Y0116893D02*
X0133030Y0116893D01*
X0131432Y0118491D02*
X0130862Y0118491D01*
X0129833Y0120090D02*
X0129733Y0120090D01*
X0137187Y0120090D02*
X0148867Y0120090D01*
X0149977Y0121200D02*
X0147400Y0118623D01*
X0147400Y0116800D01*
X0151800Y0116800D01*
X0151800Y0116800D01*
X0151800Y0121200D01*
X0153623Y0121200D01*
X0156200Y0118623D01*
X0156200Y0116800D01*
X0151800Y0116800D01*
X0151800Y0116800D01*
X0151800Y0116800D01*
X0151800Y0121200D01*
X0149977Y0121200D01*
X0151800Y0120090D02*
X0151800Y0120090D01*
X0151800Y0118491D02*
X0151800Y0118491D01*
X0151800Y0116893D02*
X0151800Y0116893D01*
X0151800Y0116800D02*
X0147400Y0116800D01*
X0147400Y0114977D01*
X0149977Y0112400D01*
X0151800Y0112400D01*
X0153623Y0112400D01*
X0156200Y0114977D01*
X0156200Y0116800D01*
X0151800Y0116800D01*
X0151800Y0112400D01*
X0151800Y0116800D01*
X0151800Y0116800D01*
X0151800Y0115294D02*
X0151800Y0115294D01*
X0151800Y0113696D02*
X0151800Y0113696D01*
X0154918Y0113696D02*
X0185499Y0113696D01*
X0185499Y0115294D02*
X0156200Y0115294D01*
X0156200Y0116893D02*
X0185499Y0116893D01*
X0185499Y0118491D02*
X0183693Y0118491D01*
X0185184Y0120090D02*
X0185499Y0120090D01*
X0179907Y0118491D02*
X0156200Y0118491D01*
X0154733Y0120090D02*
X0178416Y0120090D01*
X0185499Y0112097D02*
X0145581Y0112097D01*
X0145354Y0110499D02*
X0150849Y0110499D01*
X0151048Y0110581D02*
X0149658Y0110005D01*
X0148595Y0108942D01*
X0148019Y0107552D01*
X0148019Y0106696D01*
X0134596Y0093273D01*
X0134200Y0092317D01*
X0134200Y0089547D01*
X0133595Y0088942D01*
X0133019Y0087552D01*
X0133019Y0086048D01*
X0133595Y0084658D01*
X0134658Y0083595D01*
X0134887Y0083500D01*
X0134596Y0083208D01*
X0134200Y0082253D01*
X0134200Y0079547D01*
X0133595Y0078942D01*
X0133019Y0077552D01*
X0133019Y0076048D01*
X0133595Y0074658D01*
X0134658Y0073595D01*
X0134887Y0073500D01*
X0134596Y0073208D01*
X0134200Y0072253D01*
X0134200Y0069547D01*
X0133595Y0068942D01*
X0133019Y0067552D01*
X0133019Y0066048D01*
X0133595Y0064658D01*
X0134658Y0063595D01*
X0136048Y0063019D01*
X0137552Y0063019D01*
X0138942Y0063595D01*
X0140005Y0064658D01*
X0140581Y0066048D01*
X0140581Y0067552D01*
X0140005Y0068942D01*
X0139400Y0069547D01*
X0139400Y0070659D01*
X0142585Y0073844D01*
X0142631Y0073954D01*
X0151696Y0083019D01*
X0152552Y0083019D01*
X0153942Y0083595D01*
X0155005Y0084658D01*
X0155581Y0086048D01*
X0155581Y0087552D01*
X0155005Y0088942D01*
X0153942Y0090005D01*
X0152552Y0090581D01*
X0151048Y0090581D01*
X0149658Y0090005D01*
X0148595Y0088942D01*
X0148019Y0087552D01*
X0148019Y0086696D01*
X0140081Y0078758D01*
X0140005Y0078942D01*
X0139400Y0079547D01*
X0139400Y0080659D01*
X0142585Y0083844D01*
X0142631Y0083954D01*
X0151696Y0093019D01*
X0152552Y0093019D01*
X0153942Y0093595D01*
X0155005Y0094658D01*
X0155581Y0096048D01*
X0155581Y0097552D01*
X0155005Y0098942D01*
X0153942Y0100005D01*
X0152552Y0100581D01*
X0151048Y0100581D01*
X0149658Y0100005D01*
X0148595Y0098942D01*
X0148019Y0097552D01*
X0148019Y0096696D01*
X0140081Y0088758D01*
X0140005Y0088942D01*
X0139400Y0089547D01*
X0139400Y0090723D01*
X0151696Y0103019D01*
X0152552Y0103019D01*
X0153942Y0103595D01*
X0155005Y0104658D01*
X0155581Y0106048D01*
X0155581Y0107552D01*
X0155005Y0108942D01*
X0153942Y0110005D01*
X0152552Y0110581D01*
X0151048Y0110581D01*
X0152751Y0110499D02*
X0185499Y0110499D01*
X0185499Y0108900D02*
X0155023Y0108900D01*
X0155581Y0107302D02*
X0185499Y0107302D01*
X0185499Y0105703D02*
X0155438Y0105703D01*
X0154452Y0104105D02*
X0185499Y0104105D01*
X0185499Y0102506D02*
X0151183Y0102506D01*
X0149585Y0100908D02*
X0185499Y0100908D01*
X0185499Y0099309D02*
X0154638Y0099309D01*
X0155515Y0097711D02*
X0185499Y0097711D01*
X0185499Y0096112D02*
X0155581Y0096112D01*
X0154861Y0094514D02*
X0185499Y0094514D01*
X0185499Y0092915D02*
X0151592Y0092915D01*
X0149994Y0091317D02*
X0185499Y0091317D01*
X0185499Y0089718D02*
X0154229Y0089718D01*
X0155346Y0088120D02*
X0185499Y0088120D01*
X0185499Y0086521D02*
X0155581Y0086521D01*
X0155115Y0084923D02*
X0185499Y0084923D01*
X0185499Y0083324D02*
X0153289Y0083324D01*
X0150403Y0081726D02*
X0185499Y0081726D01*
X0185499Y0080127D02*
X0148804Y0080127D01*
X0147205Y0078529D02*
X0185499Y0078529D01*
X0185499Y0076930D02*
X0145607Y0076930D01*
X0144008Y0075332D02*
X0154109Y0075332D01*
X0154977Y0076200D02*
X0152400Y0073623D01*
X0152400Y0071800D01*
X0156800Y0071800D01*
X0161200Y0071800D01*
X0161200Y0073623D01*
X0158623Y0076200D01*
X0156800Y0076200D01*
X0156800Y0071800D01*
X0156800Y0071800D01*
X0156800Y0071800D01*
X0161200Y0071800D01*
X0161200Y0069977D01*
X0158623Y0067400D01*
X0156800Y0067400D01*
X0156800Y0071800D01*
X0156800Y0071800D01*
X0156800Y0071800D01*
X0156800Y0076200D01*
X0154977Y0076200D01*
X0156800Y0075332D02*
X0156800Y0075332D01*
X0156800Y0073733D02*
X0156800Y0073733D01*
X0156800Y0072134D02*
X0156800Y0072134D01*
X0156800Y0071800D02*
X0152400Y0071800D01*
X0152400Y0069977D01*
X0154977Y0067400D01*
X0156800Y0067400D01*
X0156800Y0071800D01*
X0156800Y0070536D02*
X0156800Y0070536D01*
X0156800Y0068937D02*
X0156800Y0068937D01*
X0153440Y0068937D02*
X0140007Y0068937D01*
X0140581Y0067339D02*
X0164200Y0067339D01*
X0164200Y0065740D02*
X0140454Y0065740D01*
X0139489Y0064142D02*
X0163795Y0064142D01*
X0163019Y0062543D02*
X0129400Y0062543D01*
X0129400Y0060945D02*
X0134722Y0060945D01*
X0134977Y0061200D02*
X0132400Y0058623D01*
X0132400Y0056800D01*
X0136800Y0056800D01*
X0141200Y0056800D01*
X0141200Y0058623D01*
X0138623Y0061200D01*
X0136800Y0061200D01*
X0136800Y0056800D01*
X0136800Y0056800D01*
X0136800Y0056800D01*
X0141200Y0056800D01*
X0141200Y0054977D01*
X0138623Y0052400D01*
X0136800Y0052400D01*
X0136800Y0056800D01*
X0136800Y0056800D01*
X0136800Y0056800D01*
X0136800Y0061200D01*
X0134977Y0061200D01*
X0136800Y0060945D02*
X0136800Y0060945D01*
X0136800Y0059346D02*
X0136800Y0059346D01*
X0136800Y0057748D02*
X0136800Y0057748D01*
X0136800Y0056800D02*
X0132400Y0056800D01*
X0132400Y0054977D01*
X0134977Y0052400D01*
X0136800Y0052400D01*
X0136800Y0056800D01*
X0136800Y0056149D02*
X0136800Y0056149D01*
X0136800Y0054551D02*
X0136800Y0054551D01*
X0136800Y0052952D02*
X0136800Y0052952D01*
X0136800Y0051200D02*
X0138623Y0051200D01*
X0141200Y0048623D01*
X0141200Y0046800D01*
X0136800Y0046800D01*
X0136800Y0046800D01*
X0136800Y0046800D01*
X0136800Y0051200D01*
X0134977Y0051200D01*
X0132400Y0048623D01*
X0132400Y0046800D01*
X0136800Y0046800D01*
X0141200Y0046800D01*
X0141200Y0044977D01*
X0138623Y0042400D01*
X0136800Y0042400D01*
X0136800Y0046800D01*
X0136800Y0046800D01*
X0136800Y0046800D01*
X0136800Y0051200D01*
X0136800Y0049755D02*
X0136800Y0049755D01*
X0136800Y0048157D02*
X0136800Y0048157D01*
X0136800Y0046800D02*
X0132400Y0046800D01*
X0132400Y0044977D01*
X0134977Y0042400D01*
X0136800Y0042400D01*
X0136800Y0046800D01*
X0136800Y0046558D02*
X0136800Y0046558D01*
X0136800Y0044960D02*
X0136800Y0044960D01*
X0136800Y0043361D02*
X0136800Y0043361D01*
X0134016Y0043361D02*
X0129584Y0043361D01*
X0129400Y0043177D02*
X0131200Y0044977D01*
X0131200Y0048623D01*
X0129400Y0050423D01*
X0129400Y0053177D01*
X0131200Y0054977D01*
X0131200Y0058623D01*
X0129400Y0060423D01*
X0129400Y0077317D01*
X0129004Y0078273D01*
X0125581Y0081696D01*
X0125581Y0082552D01*
X0125005Y0083942D01*
X0123942Y0085005D01*
X0122552Y0085581D01*
X0121048Y0085581D01*
X0119658Y0085005D01*
X0118595Y0083942D01*
X0118019Y0082552D01*
X0118019Y0081048D01*
X0118595Y0079658D01*
X0119658Y0078595D01*
X0121048Y0078019D01*
X0121904Y0078019D01*
X0124200Y0075723D01*
X0124200Y0060423D01*
X0122400Y0058623D01*
X0122400Y0054977D01*
X0124200Y0053177D01*
X0124200Y0050423D01*
X0122400Y0048623D01*
X0122400Y0044977D01*
X0124200Y0043177D01*
X0124200Y0035423D01*
X0122400Y0033623D01*
X0122400Y0029977D01*
X0124977Y0027400D01*
X0128623Y0027400D01*
X0131200Y0029977D01*
X0131200Y0033623D01*
X0129400Y0035423D01*
X0129400Y0043177D01*
X0129400Y0041763D02*
X0170286Y0041763D01*
X0168688Y0043361D02*
X0164584Y0043361D01*
X0163623Y0042400D02*
X0166200Y0044977D01*
X0166200Y0048623D01*
X0163623Y0051200D01*
X0159977Y0051200D01*
X0157400Y0048623D01*
X0157400Y0044977D01*
X0159977Y0042400D01*
X0163623Y0042400D01*
X0166182Y0044960D02*
X0167093Y0044960D01*
X0166700Y0046558D02*
X0166200Y0046558D01*
X0166200Y0048157D02*
X0166700Y0048157D01*
X0165122Y0049755D02*
X0165067Y0049755D01*
X0164900Y0051354D02*
X0129400Y0051354D01*
X0129400Y0052952D02*
X0134425Y0052952D01*
X0132827Y0054551D02*
X0130773Y0054551D01*
X0131200Y0056149D02*
X0132400Y0056149D01*
X0132400Y0057748D02*
X0131200Y0057748D01*
X0130476Y0059346D02*
X0133124Y0059346D01*
X0138878Y0060945D02*
X0159722Y0060945D01*
X0159977Y0061200D02*
X0157400Y0058623D01*
X0157400Y0056800D01*
X0161800Y0056800D01*
X0161800Y0056800D01*
X0161800Y0056800D01*
X0161800Y0061200D01*
X0159977Y0061200D01*
X0161800Y0060945D02*
X0161800Y0060945D01*
X0161800Y0059346D02*
X0161800Y0059346D01*
X0161800Y0057748D02*
X0161800Y0057748D01*
X0161800Y0056800D02*
X0157400Y0056800D01*
X0157400Y0054977D01*
X0159977Y0052400D01*
X0161800Y0052400D01*
X0161800Y0056800D01*
X0161800Y0056149D02*
X0161800Y0056149D01*
X0161800Y0054551D02*
X0161800Y0054551D01*
X0161800Y0052952D02*
X0161800Y0052952D01*
X0164175Y0052952D02*
X0164544Y0052952D01*
X0166800Y0054300D02*
X0169300Y0051800D01*
X0169300Y0046426D01*
X0186800Y0028926D01*
X0190853Y0030573D02*
X0193850Y0030573D01*
X0193850Y0028975D02*
X0191175Y0028975D01*
X0190893Y0027376D02*
X0193850Y0027376D01*
X0193850Y0025778D02*
X0189839Y0025778D01*
X0190416Y0024179D02*
X0193850Y0024179D01*
X0193850Y0022581D02*
X0191328Y0022581D01*
X0191568Y0020982D02*
X0193850Y0020982D01*
X0193850Y0019384D02*
X0191270Y0019384D01*
X0190277Y0017785D02*
X0193850Y0017785D01*
X0193850Y0016187D02*
X0150120Y0016187D01*
X0150383Y0015995D02*
X0149683Y0016504D01*
X0148911Y0016897D01*
X0148088Y0017165D01*
X0147233Y0017300D01*
X0147000Y0017300D01*
X0147000Y0012000D01*
X0152300Y0012000D01*
X0152300Y0012233D01*
X0152165Y0013088D01*
X0151897Y0013911D01*
X0151504Y0014683D01*
X0150995Y0015383D01*
X0150383Y0015995D01*
X0151552Y0014588D02*
X0193850Y0014588D01*
X0193850Y0012990D02*
X0152180Y0012990D01*
X0152300Y0011391D02*
X0193850Y0011391D01*
X0193850Y0009793D02*
X0151931Y0009793D01*
X0150972Y0008194D02*
X0193850Y0008194D01*
X0183323Y0017785D02*
X0124492Y0017785D01*
X0122893Y0019384D02*
X0182330Y0019384D01*
X0182031Y0020982D02*
X0121295Y0020982D01*
X0119696Y0022581D02*
X0182272Y0022581D01*
X0183184Y0024179D02*
X0119400Y0024179D01*
X0119400Y0025778D02*
X0183761Y0025778D01*
X0182707Y0027376D02*
X0119400Y0027376D01*
X0119400Y0028975D02*
X0123403Y0028975D01*
X0122400Y0030573D02*
X0119400Y0030573D01*
X0119400Y0032172D02*
X0122400Y0032172D01*
X0122548Y0033770D02*
X0119400Y0033770D01*
X0119400Y0035369D02*
X0124146Y0035369D01*
X0124200Y0036967D02*
X0119400Y0036967D01*
X0118711Y0038566D02*
X0124200Y0038566D01*
X0124200Y0040164D02*
X0117113Y0040164D01*
X0116200Y0041763D02*
X0124200Y0041763D01*
X0124016Y0043361D02*
X0116200Y0043361D01*
X0114863Y0044960D02*
X0122418Y0044960D01*
X0122400Y0046558D02*
X0110719Y0046558D01*
X0109120Y0048157D02*
X0122400Y0048157D01*
X0123533Y0049755D02*
X0107522Y0049755D01*
X0105923Y0051354D02*
X0124200Y0051354D01*
X0124200Y0052952D02*
X0111609Y0052952D01*
X0113231Y0054551D02*
X0122827Y0054551D01*
X0122400Y0056149D02*
X0113800Y0056149D01*
X0113770Y0057748D02*
X0122400Y0057748D01*
X0123124Y0059346D02*
X0113076Y0059346D01*
X0110891Y0060945D02*
X0124200Y0060945D01*
X0124200Y0062543D02*
X0110621Y0062543D01*
X0110275Y0062400D02*
X0111892Y0063070D01*
X0113130Y0064308D01*
X0113800Y0065925D01*
X0113800Y0067675D01*
X0113130Y0069292D01*
X0111892Y0070530D01*
X0110275Y0071200D01*
X0103325Y0071200D01*
X0101708Y0070530D01*
X0100470Y0069292D01*
X0099800Y0067675D01*
X0099800Y0065925D01*
X0100470Y0064308D01*
X0101708Y0063070D01*
X0103325Y0062400D01*
X0110275Y0062400D01*
X0112964Y0064142D02*
X0124200Y0064142D01*
X0124200Y0065740D02*
X0113724Y0065740D01*
X0113800Y0067339D02*
X0124200Y0067339D01*
X0124200Y0068937D02*
X0113277Y0068937D01*
X0111878Y0070536D02*
X0124200Y0070536D01*
X0124200Y0072134D02*
X0099400Y0072134D01*
X0099400Y0070536D02*
X0101722Y0070536D01*
X0100323Y0068937D02*
X0099400Y0068937D01*
X0099400Y0067339D02*
X0099800Y0067339D01*
X0099876Y0065740D02*
X0099400Y0065740D01*
X0099400Y0064142D02*
X0100636Y0064142D01*
X0099400Y0062543D02*
X0102978Y0062543D01*
X0102709Y0060945D02*
X0099400Y0060945D01*
X0099400Y0059346D02*
X0100524Y0059346D01*
X0099830Y0057748D02*
X0099529Y0057748D01*
X0096800Y0056800D02*
X0111800Y0041800D01*
X0116800Y0036800D01*
X0116800Y0021800D01*
X0126800Y0011800D01*
X0131922Y0009793D02*
X0141669Y0009793D01*
X0141300Y0011391D02*
X0132300Y0011391D01*
X0132260Y0012990D02*
X0141420Y0012990D01*
X0142048Y0014588D02*
X0131598Y0014588D01*
X0130192Y0016187D02*
X0143480Y0016187D01*
X0146600Y0016187D02*
X0147000Y0016187D01*
X0147000Y0014588D02*
X0146600Y0014588D01*
X0146600Y0012990D02*
X0147000Y0012990D01*
X0142628Y0008194D02*
X0130972Y0008194D01*
X0124982Y0006600D02*
X0103594Y0006600D01*
X0103911Y0006703D01*
X0104683Y0007096D01*
X0105383Y0007605D01*
X0105995Y0008217D01*
X0106504Y0008917D01*
X0106897Y0009689D01*
X0107165Y0010512D01*
X0107300Y0011367D01*
X0107300Y0011600D01*
X0102000Y0011600D01*
X0102000Y0012000D01*
X0101600Y0012000D01*
X0101600Y0017300D01*
X0101367Y0017300D01*
X0100512Y0017165D01*
X0099689Y0016897D01*
X0098917Y0016504D01*
X0098217Y0015995D01*
X0097605Y0015383D01*
X0097096Y0014683D01*
X0096703Y0013911D01*
X0096435Y0013088D01*
X0096300Y0012233D01*
X0096300Y0012000D01*
X0101600Y0012000D01*
X0101600Y0011600D01*
X0096300Y0011600D01*
X0096300Y0011367D01*
X0096435Y0010512D01*
X0096703Y0009689D01*
X0097096Y0008917D01*
X0097605Y0008217D01*
X0098217Y0007605D01*
X0098917Y0007096D01*
X0099689Y0006703D01*
X0100006Y0006600D01*
X0083618Y0006600D01*
X0084915Y0007137D01*
X0086463Y0008684D01*
X0087300Y0010706D01*
X0087300Y0012894D01*
X0087086Y0013410D01*
X0102877Y0029200D01*
X0108177Y0029200D01*
X0109977Y0027400D01*
X0113623Y0027400D01*
X0114200Y0027977D01*
X0114200Y0021283D01*
X0114596Y0020327D01*
X0121514Y0013410D01*
X0121300Y0012894D01*
X0121300Y0010706D01*
X0122137Y0008684D01*
X0123684Y0007137D01*
X0124982Y0006600D01*
X0122628Y0008194D02*
X0105972Y0008194D01*
X0106931Y0009793D02*
X0121678Y0009793D01*
X0121300Y0011391D02*
X0107300Y0011391D01*
X0107300Y0012000D02*
X0107300Y0012233D01*
X0107165Y0013088D01*
X0106897Y0013911D01*
X0106504Y0014683D01*
X0105995Y0015383D01*
X0105383Y0015995D01*
X0104683Y0016504D01*
X0103911Y0016897D01*
X0103088Y0017165D01*
X0102233Y0017300D01*
X0102000Y0017300D01*
X0102000Y0012000D01*
X0107300Y0012000D01*
X0107180Y0012990D02*
X0121340Y0012990D01*
X0120335Y0014588D02*
X0106552Y0014588D01*
X0105120Y0016187D02*
X0118736Y0016187D01*
X0117138Y0017785D02*
X0091462Y0017785D01*
X0089864Y0016187D02*
X0098480Y0016187D01*
X0097048Y0014588D02*
X0088265Y0014588D01*
X0087260Y0012990D02*
X0096420Y0012990D01*
X0096300Y0011391D02*
X0087300Y0011391D01*
X0086922Y0009793D02*
X0096669Y0009793D01*
X0097628Y0008194D02*
X0085972Y0008194D01*
X0081800Y0011800D02*
X0101800Y0031800D01*
X0111800Y0031800D01*
X0108403Y0028975D02*
X0102652Y0028975D01*
X0101053Y0027376D02*
X0114200Y0027376D01*
X0114200Y0025778D02*
X0099455Y0025778D01*
X0097856Y0024179D02*
X0114200Y0024179D01*
X0114200Y0022581D02*
X0096258Y0022581D01*
X0094659Y0020982D02*
X0114325Y0020982D01*
X0115539Y0019384D02*
X0093061Y0019384D01*
X0088904Y0022581D02*
X0059400Y0022581D01*
X0059400Y0024179D02*
X0090502Y0024179D01*
X0092101Y0025778D02*
X0059400Y0025778D01*
X0059400Y0027376D02*
X0093699Y0027376D01*
X0095298Y0028975D02*
X0075197Y0028975D01*
X0076200Y0030573D02*
X0096896Y0030573D01*
X0098495Y0032172D02*
X0076200Y0032172D01*
X0076052Y0033770D02*
X0100093Y0033770D01*
X0107400Y0040164D02*
X0076200Y0040164D01*
X0076200Y0041763D02*
X0107400Y0041763D01*
X0106562Y0043361D02*
X0076200Y0043361D01*
X0074863Y0044960D02*
X0104963Y0044960D01*
X0103365Y0046558D02*
X0074400Y0046558D01*
X0074400Y0048157D02*
X0101766Y0048157D01*
X0100168Y0049755D02*
X0074400Y0049755D01*
X0074400Y0051354D02*
X0098569Y0051354D01*
X0096971Y0052952D02*
X0081609Y0052952D01*
X0083231Y0054551D02*
X0095372Y0054551D01*
X0094255Y0056149D02*
X0083800Y0056149D01*
X0083770Y0057748D02*
X0094200Y0057748D01*
X0094200Y0059346D02*
X0083076Y0059346D01*
X0084622Y0060945D02*
X0094200Y0060945D01*
X0094200Y0062543D02*
X0086220Y0062543D01*
X0087819Y0064142D02*
X0094200Y0064142D01*
X0094200Y0065740D02*
X0089417Y0065740D01*
X0091016Y0067339D02*
X0094200Y0067339D01*
X0094200Y0068937D02*
X0092614Y0068937D01*
X0094091Y0070536D02*
X0094200Y0070536D01*
X0091800Y0071800D02*
X0076800Y0056800D01*
X0072709Y0060945D02*
X0059400Y0060945D01*
X0059400Y0062543D02*
X0072978Y0062543D01*
X0070636Y0064142D02*
X0059400Y0064142D01*
X0059400Y0065740D02*
X0069876Y0065740D01*
X0069800Y0067339D02*
X0059400Y0067339D01*
X0059400Y0068937D02*
X0070323Y0068937D01*
X0071722Y0070536D02*
X0059400Y0070536D01*
X0059400Y0072134D02*
X0078458Y0072134D01*
X0076800Y0066800D02*
X0086800Y0076800D01*
X0086800Y0081800D01*
X0086800Y0136800D01*
X0086800Y0181800D01*
X0084018Y0179235D02*
X0083154Y0179235D01*
X0083130Y0179292D02*
X0081892Y0180530D01*
X0080275Y0181200D01*
X0073325Y0181200D01*
X0071708Y0180530D01*
X0070470Y0179292D01*
X0069800Y0177675D01*
X0069800Y0175925D01*
X0070470Y0174308D01*
X0071708Y0173070D01*
X0073325Y0172400D01*
X0080275Y0172400D01*
X0081892Y0173070D01*
X0083130Y0174308D01*
X0083800Y0175925D01*
X0083800Y0177675D01*
X0083130Y0179292D01*
X0083108Y0180833D02*
X0081161Y0180833D01*
X0080352Y0182432D02*
X0083019Y0182432D01*
X0081892Y0183070D02*
X0083130Y0184308D01*
X0083800Y0185925D01*
X0083800Y0187675D01*
X0083130Y0189292D01*
X0081892Y0190530D01*
X0080275Y0191200D01*
X0073325Y0191200D01*
X0071708Y0190530D01*
X0070470Y0189292D01*
X0069800Y0187675D01*
X0069800Y0185925D01*
X0070470Y0184308D01*
X0071708Y0183070D01*
X0073325Y0182400D01*
X0080275Y0182400D01*
X0081892Y0183070D01*
X0082853Y0184030D02*
X0083683Y0184030D01*
X0083677Y0185629D02*
X0093192Y0185629D01*
X0093019Y0187227D02*
X0083800Y0187227D01*
X0083323Y0188826D02*
X0093546Y0188826D01*
X0095669Y0190424D02*
X0081998Y0190424D01*
X0089917Y0184030D02*
X0094200Y0184030D01*
X0094200Y0182432D02*
X0090581Y0182432D01*
X0090492Y0180833D02*
X0094200Y0180833D01*
X0094200Y0179235D02*
X0089582Y0179235D01*
X0089400Y0177636D02*
X0094200Y0177636D01*
X0094200Y0176038D02*
X0089400Y0176038D01*
X0089400Y0174439D02*
X0094200Y0174439D01*
X0094200Y0172841D02*
X0089400Y0172841D01*
X0089400Y0171242D02*
X0094200Y0171242D01*
X0094200Y0169644D02*
X0089400Y0169644D01*
X0089400Y0168045D02*
X0094200Y0168045D01*
X0094200Y0166447D02*
X0089400Y0166447D01*
X0089400Y0164848D02*
X0089501Y0164848D01*
X0091800Y0161800D02*
X0091800Y0071800D01*
X0099400Y0073733D02*
X0101044Y0073733D01*
X0100470Y0074308D02*
X0101708Y0073070D01*
X0103325Y0072400D01*
X0110275Y0072400D01*
X0111892Y0073070D01*
X0113130Y0074308D01*
X0113800Y0075925D01*
X0113800Y0077675D01*
X0113130Y0079292D01*
X0111892Y0080530D01*
X0110275Y0081200D01*
X0103325Y0081200D01*
X0101708Y0080530D01*
X0100470Y0079292D01*
X0099800Y0077675D01*
X0099800Y0075925D01*
X0100470Y0074308D01*
X0100046Y0075332D02*
X0099400Y0075332D01*
X0099400Y0076930D02*
X0099800Y0076930D01*
X0100153Y0078529D02*
X0099400Y0078529D01*
X0099400Y0080127D02*
X0101305Y0080127D01*
X0099400Y0081726D02*
X0118019Y0081726D01*
X0118339Y0083324D02*
X0112147Y0083324D01*
X0111892Y0083070D02*
X0113130Y0084308D01*
X0113800Y0085925D01*
X0113800Y0087675D01*
X0113130Y0089292D01*
X0111892Y0090530D01*
X0110275Y0091200D01*
X0103325Y0091200D01*
X0101708Y0090530D01*
X0100470Y0089292D01*
X0099800Y0087675D01*
X0099800Y0085925D01*
X0100470Y0084308D01*
X0101708Y0083070D01*
X0103325Y0082400D01*
X0110275Y0082400D01*
X0111892Y0083070D01*
X0113385Y0084923D02*
X0119575Y0084923D01*
X0121800Y0081800D02*
X0126800Y0076800D01*
X0126800Y0056800D01*
X0126800Y0046800D01*
X0126800Y0031800D01*
X0130197Y0028975D02*
X0133403Y0028975D01*
X0132400Y0029977D02*
X0134977Y0027400D01*
X0136800Y0027400D01*
X0138623Y0027400D01*
X0141200Y0029977D01*
X0141200Y0031800D01*
X0141200Y0033623D01*
X0138623Y0036200D01*
X0136800Y0036200D01*
X0136800Y0031800D01*
X0126800Y0021800D01*
X0136800Y0027400D02*
X0136800Y0031800D01*
X0141200Y0031800D01*
X0136800Y0031800D01*
X0136800Y0031800D01*
X0136800Y0031800D01*
X0136800Y0027400D01*
X0136800Y0028975D02*
X0136800Y0028975D01*
X0136800Y0030573D02*
X0136800Y0030573D01*
X0136800Y0031800D02*
X0136800Y0031800D01*
X0136800Y0031800D01*
X0132400Y0031800D01*
X0132400Y0033623D01*
X0134977Y0036200D01*
X0136800Y0036200D01*
X0136800Y0031800D01*
X0132400Y0031800D01*
X0132400Y0029977D01*
X0132400Y0030573D02*
X0131200Y0030573D01*
X0131200Y0032172D02*
X0132400Y0032172D01*
X0132548Y0033770D02*
X0131052Y0033770D01*
X0129454Y0035369D02*
X0134146Y0035369D01*
X0136800Y0035369D02*
X0136800Y0035369D01*
X0136800Y0033770D02*
X0136800Y0033770D01*
X0136800Y0032172D02*
X0136800Y0032172D01*
X0139454Y0035369D02*
X0176680Y0035369D01*
X0175082Y0036967D02*
X0129400Y0036967D01*
X0129400Y0038566D02*
X0173483Y0038566D01*
X0171885Y0040164D02*
X0129400Y0040164D01*
X0131182Y0044960D02*
X0132418Y0044960D01*
X0132400Y0046558D02*
X0131200Y0046558D01*
X0131200Y0048157D02*
X0132400Y0048157D01*
X0133533Y0049755D02*
X0130067Y0049755D01*
X0139175Y0052952D02*
X0159425Y0052952D01*
X0157827Y0054551D02*
X0140773Y0054551D01*
X0141200Y0056149D02*
X0157400Y0056149D01*
X0157400Y0057748D02*
X0141200Y0057748D01*
X0140476Y0059346D02*
X0158124Y0059346D01*
X0166800Y0061800D02*
X0166800Y0054300D01*
X0169400Y0057748D02*
X0185499Y0057748D01*
X0185499Y0059346D02*
X0169694Y0059346D01*
X0170538Y0060945D02*
X0185499Y0060945D01*
X0185499Y0062543D02*
X0170581Y0062543D01*
X0169805Y0064142D02*
X0185499Y0064142D01*
X0185499Y0065740D02*
X0169400Y0065740D01*
X0169400Y0067339D02*
X0185499Y0067339D01*
X0185499Y0068937D02*
X0170160Y0068937D01*
X0171200Y0070536D02*
X0185499Y0070536D01*
X0185499Y0072134D02*
X0171200Y0072134D01*
X0171090Y0073733D02*
X0185499Y0073733D01*
X0185499Y0075332D02*
X0169491Y0075332D01*
X0166800Y0071800D02*
X0166800Y0061800D01*
X0171173Y0056149D02*
X0183658Y0056149D01*
X0182468Y0054551D02*
X0172772Y0054551D01*
X0173700Y0052952D02*
X0182031Y0052952D01*
X0182133Y0051354D02*
X0173700Y0051354D01*
X0173478Y0049755D02*
X0182849Y0049755D01*
X0184096Y0048157D02*
X0171900Y0048157D01*
X0172845Y0046558D02*
X0182845Y0046558D01*
X0182425Y0044960D02*
X0174443Y0044960D01*
X0176042Y0043361D02*
X0182608Y0043361D01*
X0183524Y0041763D02*
X0177640Y0041763D01*
X0179239Y0040164D02*
X0183977Y0040164D01*
X0182796Y0038566D02*
X0180837Y0038566D01*
X0178279Y0033770D02*
X0141052Y0033770D01*
X0141200Y0032172D02*
X0179877Y0032172D01*
X0181476Y0030573D02*
X0141200Y0030573D01*
X0140197Y0028975D02*
X0182425Y0028975D01*
X0189741Y0032172D02*
X0193850Y0032172D01*
X0193850Y0033770D02*
X0189957Y0033770D01*
X0190942Y0035369D02*
X0193850Y0035369D01*
X0193850Y0036967D02*
X0191175Y0036967D01*
X0190804Y0038566D02*
X0193850Y0038566D01*
X0193850Y0040164D02*
X0191871Y0040164D01*
X0193470Y0041763D02*
X0193850Y0041763D01*
X0191369Y0043338D02*
X0191369Y0054440D01*
X0188099Y0057710D01*
X0188099Y0161721D01*
X0193850Y0190424D02*
X0154398Y0190424D01*
X0149202Y0190424D02*
X0134398Y0190424D01*
X0134292Y0190530D02*
X0132675Y0191200D01*
X0130925Y0191200D01*
X0129308Y0190530D01*
X0128070Y0189292D01*
X0127400Y0187675D01*
X0127400Y0185925D01*
X0128070Y0184308D01*
X0129308Y0183070D01*
X0130925Y0182400D01*
X0132675Y0182400D01*
X0134292Y0183070D01*
X0135530Y0184308D01*
X0136200Y0185925D01*
X0136200Y0187675D01*
X0135530Y0189292D01*
X0134292Y0190530D01*
X0135723Y0188826D02*
X0147603Y0188826D01*
X0147400Y0187227D02*
X0136200Y0187227D01*
X0136077Y0185629D02*
X0147400Y0185629D01*
X0148347Y0184030D02*
X0135253Y0184030D01*
X0132752Y0182432D02*
X0149946Y0182432D01*
X0149611Y0180833D02*
X0111176Y0180833D01*
X0111089Y0180878D02*
X0110430Y0181092D01*
X0109746Y0181200D01*
X0106800Y0181200D01*
X0106800Y0176800D01*
X0106800Y0176800D01*
X0113800Y0176800D01*
X0113800Y0177146D01*
X0113692Y0177830D01*
X0113478Y0178489D01*
X0113163Y0179106D01*
X0112756Y0179666D01*
X0112266Y0180156D01*
X0111706Y0180563D01*
X0111089Y0180878D01*
X0110352Y0182432D02*
X0130848Y0182432D01*
X0128347Y0184030D02*
X0112853Y0184030D01*
X0113677Y0185629D02*
X0127523Y0185629D01*
X0127400Y0187227D02*
X0113800Y0187227D01*
X0113323Y0188826D02*
X0127877Y0188826D01*
X0129202Y0190424D02*
X0111998Y0190424D01*
X0103248Y0182432D02*
X0099400Y0182432D01*
X0099400Y0184030D02*
X0100747Y0184030D01*
X0099400Y0180833D02*
X0102424Y0180833D01*
X0102511Y0180878D02*
X0101894Y0180563D01*
X0101334Y0180156D01*
X0100844Y0179666D01*
X0100437Y0179106D01*
X0100122Y0178489D01*
X0099908Y0177830D01*
X0099800Y0177146D01*
X0099800Y0176800D01*
X0106800Y0176800D01*
X0106800Y0176800D01*
X0106800Y0172400D01*
X0109746Y0172400D01*
X0110430Y0172508D01*
X0111089Y0172722D01*
X0111706Y0173037D01*
X0112266Y0173444D01*
X0112756Y0173934D01*
X0113163Y0174494D01*
X0113478Y0175111D01*
X0113692Y0175770D01*
X0113800Y0176454D01*
X0113800Y0176800D01*
X0106800Y0176800D01*
X0106800Y0176800D01*
X0106800Y0176800D01*
X0106800Y0181200D01*
X0103854Y0181200D01*
X0103170Y0181092D01*
X0102511Y0180878D01*
X0100530Y0179235D02*
X0099400Y0179235D01*
X0099400Y0177636D02*
X0099878Y0177636D01*
X0099800Y0176800D02*
X0099800Y0176454D01*
X0099908Y0175770D01*
X0100122Y0175111D01*
X0100437Y0174494D01*
X0100844Y0173934D01*
X0101334Y0173444D01*
X0101894Y0173037D01*
X0102511Y0172722D01*
X0103170Y0172508D01*
X0103854Y0172400D01*
X0106800Y0172400D01*
X0106800Y0176800D01*
X0099800Y0176800D01*
X0099866Y0176038D02*
X0099400Y0176038D01*
X0099400Y0174439D02*
X0100477Y0174439D01*
X0099400Y0172841D02*
X0102279Y0172841D01*
X0106800Y0172841D02*
X0106800Y0172841D01*
X0106800Y0174439D02*
X0106800Y0174439D01*
X0106800Y0176038D02*
X0106800Y0176038D01*
X0106800Y0177636D02*
X0106800Y0177636D01*
X0106800Y0179235D02*
X0106800Y0179235D01*
X0106800Y0180833D02*
X0106800Y0180833D01*
X0113070Y0179235D02*
X0148012Y0179235D01*
X0147400Y0177636D02*
X0113722Y0177636D01*
X0113734Y0176038D02*
X0147400Y0176038D01*
X0147938Y0174439D02*
X0113123Y0174439D01*
X0111321Y0172841D02*
X0149200Y0172841D01*
X0149200Y0168045D02*
X0136200Y0168045D01*
X0136200Y0166447D02*
X0149200Y0166447D01*
X0149200Y0164848D02*
X0136071Y0164848D01*
X0129128Y0163250D02*
X0114027Y0163250D01*
X0113354Y0164848D02*
X0127529Y0164848D01*
X0127400Y0166447D02*
X0113800Y0166447D01*
X0113647Y0168045D02*
X0127400Y0168045D01*
X0128421Y0169644D02*
X0112779Y0169644D01*
X0106800Y0166800D02*
X0136800Y0136800D01*
X0119461Y0150462D02*
X0116815Y0150462D01*
X0117863Y0152060D02*
X0115217Y0152060D01*
X0116264Y0153659D02*
X0113618Y0153659D01*
X0113523Y0155257D02*
X0114666Y0155257D01*
X0107863Y0152060D02*
X0099400Y0152060D01*
X0099400Y0150462D02*
X0101639Y0150462D01*
X0100292Y0148863D02*
X0099400Y0148863D01*
X0099400Y0147265D02*
X0099800Y0147265D01*
X0099907Y0145666D02*
X0099400Y0145666D01*
X0099400Y0144068D02*
X0100710Y0144068D01*
X0099400Y0142469D02*
X0103158Y0142469D01*
X0102529Y0140870D02*
X0099400Y0140870D01*
X0099400Y0139272D02*
X0100461Y0139272D01*
X0099800Y0137673D02*
X0099400Y0137673D01*
X0099400Y0136075D02*
X0099800Y0136075D01*
X0099400Y0134476D02*
X0100400Y0134476D01*
X0099400Y0132878D02*
X0102171Y0132878D01*
X0111429Y0132878D02*
X0117045Y0132878D01*
X0115447Y0134476D02*
X0113200Y0134476D01*
X0113800Y0136075D02*
X0113848Y0136075D01*
X0106800Y0146800D02*
X0141800Y0111800D01*
X0144248Y0108900D02*
X0148577Y0108900D01*
X0148019Y0107302D02*
X0113800Y0107302D01*
X0113800Y0107675D02*
X0113130Y0109292D01*
X0111892Y0110530D01*
X0110275Y0111200D01*
X0103325Y0111200D01*
X0101708Y0110530D01*
X0100470Y0109292D01*
X0099800Y0107675D01*
X0099800Y0105925D01*
X0100470Y0104308D01*
X0101708Y0103070D01*
X0103325Y0102400D01*
X0110275Y0102400D01*
X0111892Y0103070D01*
X0113130Y0104308D01*
X0113800Y0105925D01*
X0113800Y0107675D01*
X0113293Y0108900D02*
X0139352Y0108900D01*
X0138246Y0110499D02*
X0111924Y0110499D01*
X0113708Y0105703D02*
X0147026Y0105703D01*
X0145428Y0104105D02*
X0112927Y0104105D01*
X0110532Y0102506D02*
X0143829Y0102506D01*
X0142231Y0100908D02*
X0128915Y0100908D01*
X0128623Y0101200D02*
X0131200Y0098623D01*
X0131200Y0096800D01*
X0126800Y0096800D01*
X0126800Y0096800D01*
X0126800Y0101200D01*
X0128623Y0101200D01*
X0126800Y0101200D02*
X0124977Y0101200D01*
X0122400Y0098623D01*
X0122400Y0096800D01*
X0126800Y0096800D01*
X0126800Y0096800D01*
X0126800Y0096800D01*
X0126800Y0101200D01*
X0126800Y0100908D02*
X0126800Y0100908D01*
X0126800Y0099309D02*
X0126800Y0099309D01*
X0126800Y0097711D02*
X0126800Y0097711D01*
X0126800Y0096800D02*
X0122400Y0096800D01*
X0122400Y0094977D01*
X0124977Y0092400D01*
X0126800Y0092400D01*
X0128623Y0092400D01*
X0131200Y0094977D01*
X0131200Y0096800D01*
X0126800Y0096800D01*
X0126800Y0092400D01*
X0126800Y0096800D01*
X0126800Y0096800D01*
X0126800Y0096112D02*
X0126800Y0096112D01*
X0126800Y0094514D02*
X0126800Y0094514D01*
X0126800Y0092915D02*
X0126800Y0092915D01*
X0129138Y0092915D02*
X0134448Y0092915D01*
X0134200Y0091317D02*
X0099400Y0091317D01*
X0099400Y0092915D02*
X0102133Y0092915D01*
X0101894Y0093037D02*
X0102511Y0092722D01*
X0103170Y0092508D01*
X0103854Y0092400D01*
X0106800Y0092400D01*
X0109746Y0092400D01*
X0110430Y0092508D01*
X0111089Y0092722D01*
X0111706Y0093037D01*
X0112266Y0093444D01*
X0112756Y0093934D01*
X0113163Y0094494D01*
X0113478Y0095111D01*
X0113692Y0095770D01*
X0113800Y0096454D01*
X0113800Y0096800D01*
X0113800Y0097146D01*
X0113692Y0097830D01*
X0113478Y0098489D01*
X0113163Y0099106D01*
X0112756Y0099666D01*
X0112266Y0100156D01*
X0111706Y0100563D01*
X0111089Y0100878D01*
X0110430Y0101092D01*
X0109746Y0101200D01*
X0106800Y0101200D01*
X0106800Y0096800D01*
X0106800Y0096800D01*
X0113800Y0096800D01*
X0106800Y0096800D01*
X0106800Y0096800D01*
X0106800Y0092400D01*
X0106800Y0096800D01*
X0106800Y0096800D01*
X0106800Y0096800D01*
X0099800Y0096800D01*
X0099800Y0097146D01*
X0099908Y0097830D01*
X0100122Y0098489D01*
X0100437Y0099106D01*
X0100844Y0099666D01*
X0101334Y0100156D01*
X0101894Y0100563D01*
X0102511Y0100878D01*
X0103170Y0101092D01*
X0103854Y0101200D01*
X0106800Y0101200D01*
X0106800Y0096800D01*
X0099800Y0096800D01*
X0099800Y0096454D01*
X0099908Y0095770D01*
X0100122Y0095111D01*
X0100437Y0094494D01*
X0100844Y0093934D01*
X0101334Y0093444D01*
X0101894Y0093037D01*
X0100427Y0094514D02*
X0099400Y0094514D01*
X0099400Y0096112D02*
X0099854Y0096112D01*
X0099889Y0097711D02*
X0099400Y0097711D01*
X0099400Y0099309D02*
X0100584Y0099309D01*
X0099400Y0100908D02*
X0102604Y0100908D01*
X0103068Y0102506D02*
X0099400Y0102506D01*
X0099400Y0104105D02*
X0100673Y0104105D01*
X0099892Y0105703D02*
X0099400Y0105703D01*
X0099400Y0107302D02*
X0099800Y0107302D01*
X0099400Y0108900D02*
X0100307Y0108900D01*
X0099400Y0110499D02*
X0101676Y0110499D01*
X0099400Y0112097D02*
X0137826Y0112097D01*
X0140384Y0116893D02*
X0147400Y0116893D01*
X0147400Y0118491D02*
X0138786Y0118491D01*
X0143244Y0115294D02*
X0147400Y0115294D01*
X0148682Y0113696D02*
X0145107Y0113696D01*
X0151800Y0106800D02*
X0136800Y0091800D01*
X0136800Y0086800D01*
X0133254Y0088120D02*
X0113616Y0088120D01*
X0113800Y0086521D02*
X0133019Y0086521D01*
X0133485Y0084923D02*
X0124025Y0084923D01*
X0125261Y0083324D02*
X0134712Y0083324D01*
X0134200Y0081726D02*
X0125581Y0081726D01*
X0127150Y0080127D02*
X0134200Y0080127D01*
X0133423Y0078529D02*
X0128748Y0078529D01*
X0129400Y0076930D02*
X0133019Y0076930D01*
X0133316Y0075332D02*
X0129400Y0075332D01*
X0129400Y0073733D02*
X0134520Y0073733D01*
X0134200Y0072134D02*
X0129400Y0072134D01*
X0129400Y0070536D02*
X0134200Y0070536D01*
X0133593Y0068937D02*
X0129400Y0068937D01*
X0129400Y0067339D02*
X0133019Y0067339D01*
X0133146Y0065740D02*
X0129400Y0065740D01*
X0129400Y0064142D02*
X0134111Y0064142D01*
X0136800Y0066800D02*
X0136800Y0071736D01*
X0140381Y0075317D01*
X0140381Y0075381D01*
X0151800Y0086800D01*
X0149371Y0089718D02*
X0148395Y0089718D01*
X0148254Y0088120D02*
X0146797Y0088120D01*
X0147844Y0086521D02*
X0145198Y0086521D01*
X0146246Y0084923D02*
X0143600Y0084923D01*
X0144647Y0083324D02*
X0142065Y0083324D01*
X0143049Y0081726D02*
X0140467Y0081726D01*
X0141450Y0080127D02*
X0139400Y0080127D01*
X0136800Y0081736D02*
X0136800Y0076800D01*
X0136800Y0081736D02*
X0140381Y0085317D01*
X0140381Y0085381D01*
X0151800Y0096800D01*
X0148962Y0099309D02*
X0147986Y0099309D01*
X0148085Y0097711D02*
X0146388Y0097711D01*
X0147435Y0096112D02*
X0144789Y0096112D01*
X0145837Y0094514D02*
X0143191Y0094514D01*
X0144238Y0092915D02*
X0141592Y0092915D01*
X0142640Y0091317D02*
X0139994Y0091317D01*
X0139400Y0089718D02*
X0141041Y0089718D01*
X0135837Y0094514D02*
X0130736Y0094514D01*
X0131200Y0096112D02*
X0137435Y0096112D01*
X0139034Y0097711D02*
X0131200Y0097711D01*
X0130513Y0099309D02*
X0140632Y0099309D01*
X0134200Y0089718D02*
X0112704Y0089718D01*
X0111467Y0092915D02*
X0124462Y0092915D01*
X0122864Y0094514D02*
X0113173Y0094514D01*
X0113746Y0096112D02*
X0122400Y0096112D01*
X0122400Y0097711D02*
X0113711Y0097711D01*
X0113016Y0099309D02*
X0123087Y0099309D01*
X0124685Y0100908D02*
X0110996Y0100908D01*
X0106800Y0100908D02*
X0106800Y0100908D01*
X0106800Y0099309D02*
X0106800Y0099309D01*
X0106800Y0097711D02*
X0106800Y0097711D01*
X0106800Y0096112D02*
X0106800Y0096112D01*
X0106800Y0094514D02*
X0106800Y0094514D01*
X0106800Y0092915D02*
X0106800Y0092915D01*
X0100896Y0089718D02*
X0099400Y0089718D01*
X0099400Y0088120D02*
X0099984Y0088120D01*
X0099800Y0086521D02*
X0099400Y0086521D01*
X0099400Y0084923D02*
X0100215Y0084923D01*
X0099400Y0083324D02*
X0101453Y0083324D01*
X0112295Y0080127D02*
X0118400Y0080127D01*
X0119817Y0078529D02*
X0113447Y0078529D01*
X0113800Y0076930D02*
X0122993Y0076930D01*
X0124200Y0075332D02*
X0113554Y0075332D01*
X0112556Y0073733D02*
X0124200Y0073733D01*
X0139400Y0070536D02*
X0152400Y0070536D01*
X0152400Y0072134D02*
X0140876Y0072134D01*
X0142474Y0073733D02*
X0152510Y0073733D01*
X0159491Y0075332D02*
X0164109Y0075332D01*
X0162510Y0073733D02*
X0161090Y0073733D01*
X0161200Y0072134D02*
X0162400Y0072134D01*
X0162400Y0070536D02*
X0161200Y0070536D01*
X0160160Y0068937D02*
X0163440Y0068937D01*
X0169300Y0051800D02*
X0169300Y0051426D01*
X0158533Y0049755D02*
X0140067Y0049755D01*
X0141200Y0048157D02*
X0157400Y0048157D01*
X0157400Y0046558D02*
X0141200Y0046558D01*
X0141182Y0044960D02*
X0157418Y0044960D01*
X0159016Y0043361D02*
X0139584Y0043361D01*
X0112956Y0036967D02*
X0074400Y0036967D01*
X0074454Y0035369D02*
X0109146Y0035369D01*
X0108812Y0038566D02*
X0074788Y0038566D01*
X0071800Y0041800D02*
X0071800Y0031800D01*
X0068403Y0028975D02*
X0059400Y0028975D01*
X0059400Y0030573D02*
X0067400Y0030573D01*
X0067400Y0032172D02*
X0059400Y0032172D01*
X0059400Y0033770D02*
X0067548Y0033770D01*
X0069146Y0035369D02*
X0059400Y0035369D01*
X0059400Y0036967D02*
X0069200Y0036967D01*
X0068812Y0038566D02*
X0059400Y0038566D01*
X0059400Y0040164D02*
X0067400Y0040164D01*
X0067400Y0041763D02*
X0059400Y0041763D01*
X0059400Y0043361D02*
X0067400Y0043361D01*
X0068737Y0044960D02*
X0059400Y0044960D01*
X0059400Y0046558D02*
X0069200Y0046558D01*
X0069200Y0048157D02*
X0059400Y0048157D01*
X0059400Y0049755D02*
X0069200Y0049755D01*
X0068569Y0051354D02*
X0059400Y0051354D01*
X0059400Y0052952D02*
X0066971Y0052952D01*
X0063702Y0054551D02*
X0059400Y0054551D01*
X0059400Y0056149D02*
X0063019Y0056149D01*
X0063100Y0057748D02*
X0059400Y0057748D01*
X0059400Y0059346D02*
X0063999Y0059346D01*
X0066800Y0056800D02*
X0071800Y0051800D01*
X0071800Y0041800D01*
X0070524Y0059346D02*
X0069601Y0059346D01*
X0071044Y0073733D02*
X0059400Y0073733D01*
X0059400Y0075332D02*
X0070046Y0075332D01*
X0069800Y0076930D02*
X0059400Y0076930D01*
X0059400Y0078529D02*
X0070153Y0078529D01*
X0071305Y0080127D02*
X0059400Y0080127D01*
X0059400Y0081726D02*
X0083019Y0081726D01*
X0083339Y0083324D02*
X0082147Y0083324D01*
X0081892Y0083070D02*
X0083130Y0084308D01*
X0083800Y0085925D01*
X0083800Y0087675D01*
X0083130Y0089292D01*
X0081892Y0090530D01*
X0080275Y0091200D01*
X0073325Y0091200D01*
X0071708Y0090530D01*
X0070470Y0089292D01*
X0069800Y0087675D01*
X0069800Y0085925D01*
X0070470Y0084308D01*
X0071708Y0083070D01*
X0073325Y0082400D01*
X0080275Y0082400D01*
X0081892Y0083070D01*
X0083385Y0084923D02*
X0084200Y0084923D01*
X0084200Y0086521D02*
X0083800Y0086521D01*
X0083616Y0088120D02*
X0084200Y0088120D01*
X0084200Y0089718D02*
X0082704Y0089718D01*
X0084200Y0091317D02*
X0062934Y0091317D01*
X0062894Y0091300D02*
X0064915Y0092137D01*
X0066463Y0093684D01*
X0067300Y0095706D01*
X0067300Y0097894D01*
X0066463Y0099915D01*
X0064915Y0101463D01*
X0064101Y0101800D01*
X0064683Y0102096D01*
X0065383Y0102605D01*
X0065995Y0103217D01*
X0066504Y0103917D01*
X0066897Y0104689D01*
X0067165Y0105512D01*
X0067300Y0106367D01*
X0067300Y0106600D01*
X0062000Y0106600D01*
X0062000Y0107000D01*
X0067300Y0107000D01*
X0067300Y0107233D01*
X0067165Y0108088D01*
X0066897Y0108911D01*
X0066504Y0109683D01*
X0065995Y0110383D01*
X0065383Y0110995D01*
X0064683Y0111504D01*
X0064101Y0111800D01*
X0064915Y0112137D01*
X0066463Y0113684D01*
X0067300Y0115706D01*
X0067300Y0117894D01*
X0066463Y0119915D01*
X0064915Y0121463D01*
X0062894Y0122300D01*
X0060706Y0122300D01*
X0058684Y0121463D01*
X0057137Y0119915D01*
X0056300Y0117894D01*
X0056300Y0115706D01*
X0057137Y0113684D01*
X0058684Y0112137D01*
X0059499Y0111800D01*
X0058917Y0111504D01*
X0058217Y0110995D01*
X0057605Y0110383D01*
X0057096Y0109683D01*
X0056703Y0108911D01*
X0056435Y0108088D01*
X0056300Y0107233D01*
X0056300Y0107000D01*
X0061600Y0107000D01*
X0061600Y0106600D01*
X0056300Y0106600D01*
X0056300Y0106367D01*
X0056435Y0105512D01*
X0056703Y0104689D01*
X0057096Y0103917D01*
X0057605Y0103217D01*
X0058217Y0102605D01*
X0058917Y0102096D01*
X0059499Y0101800D01*
X0058684Y0101463D01*
X0057137Y0099915D01*
X0056300Y0097894D01*
X0056300Y0095706D01*
X0057137Y0093684D01*
X0058684Y0092137D01*
X0060706Y0091300D01*
X0062894Y0091300D01*
X0060666Y0091317D02*
X0044400Y0091317D01*
X0044400Y0092915D02*
X0057907Y0092915D01*
X0056794Y0094514D02*
X0044400Y0094514D01*
X0044400Y0096112D02*
X0056300Y0096112D01*
X0056300Y0097711D02*
X0044400Y0097711D01*
X0044400Y0099309D02*
X0056886Y0099309D01*
X0058130Y0100908D02*
X0044400Y0100908D01*
X0044400Y0102506D02*
X0058353Y0102506D01*
X0057001Y0104105D02*
X0044400Y0104105D01*
X0044400Y0105703D02*
X0056405Y0105703D01*
X0056311Y0107302D02*
X0044400Y0107302D01*
X0044400Y0108900D02*
X0056699Y0108900D01*
X0057721Y0110499D02*
X0044400Y0110499D01*
X0044400Y0112097D02*
X0058781Y0112097D01*
X0057133Y0113696D02*
X0044918Y0113696D01*
X0044400Y0113177D02*
X0046200Y0114977D01*
X0046200Y0118623D01*
X0043623Y0121200D01*
X0039977Y0121200D01*
X0037400Y0118623D01*
X0037400Y0114977D01*
X0039200Y0113177D01*
X0039200Y0080423D01*
X0037400Y0078623D01*
X0037400Y0074977D01*
X0039977Y0072400D01*
X0043623Y0072400D01*
X0046200Y0074977D01*
X0046200Y0078623D01*
X0044400Y0080423D01*
X0044400Y0113177D01*
X0046200Y0115294D02*
X0056471Y0115294D01*
X0056300Y0116893D02*
X0046200Y0116893D01*
X0046200Y0118491D02*
X0056547Y0118491D01*
X0057312Y0120090D02*
X0044733Y0120090D01*
X0041800Y0116800D02*
X0041800Y0076800D01*
X0044956Y0073733D02*
X0054200Y0073733D01*
X0054200Y0072134D02*
X0009909Y0072134D01*
X0010842Y0070536D02*
X0039313Y0070536D01*
X0039977Y0071200D02*
X0037400Y0068623D01*
X0037400Y0064977D01*
X0039977Y0062400D01*
X0043623Y0062400D01*
X0046200Y0064977D01*
X0046200Y0068623D01*
X0043623Y0071200D01*
X0039977Y0071200D01*
X0038644Y0073733D02*
X0011483Y0073733D01*
X0012145Y0075332D02*
X0037400Y0075332D01*
X0037400Y0076930D02*
X0012300Y0076930D01*
X0012037Y0078529D02*
X0037400Y0078529D01*
X0038905Y0080127D02*
X0011251Y0080127D01*
X0009281Y0081726D02*
X0039200Y0081726D01*
X0039200Y0083324D02*
X0011102Y0083324D01*
X0011975Y0084923D02*
X0039200Y0084923D01*
X0039200Y0086521D02*
X0012300Y0086521D01*
X0012207Y0088120D02*
X0039200Y0088120D01*
X0039200Y0089718D02*
X0011544Y0089718D01*
X0010062Y0091317D02*
X0039200Y0091317D01*
X0039200Y0092915D02*
X0010693Y0092915D01*
X0011806Y0094514D02*
X0039200Y0094514D01*
X0039200Y0096112D02*
X0012300Y0096112D01*
X0012300Y0097711D02*
X0039200Y0097711D01*
X0039200Y0099309D02*
X0011714Y0099309D01*
X0010470Y0100908D02*
X0039200Y0100908D01*
X0039200Y0102506D02*
X0010284Y0102506D01*
X0011637Y0104105D02*
X0039200Y0104105D01*
X0039200Y0105703D02*
X0012299Y0105703D01*
X0012300Y0107302D02*
X0039200Y0107302D01*
X0039200Y0108900D02*
X0034248Y0108900D01*
X0033942Y0108595D02*
X0035005Y0109658D01*
X0035581Y0111048D01*
X0035581Y0112552D01*
X0035005Y0113942D01*
X0034400Y0114547D01*
X0034400Y0120723D01*
X0036696Y0123019D01*
X0037552Y0123019D01*
X0038942Y0123595D01*
X0040005Y0124658D01*
X0040581Y0126048D01*
X0040581Y0127552D01*
X0040005Y0128942D01*
X0038942Y0130005D01*
X0037552Y0130581D01*
X0036048Y0130581D01*
X0034658Y0130005D01*
X0033595Y0128942D01*
X0033019Y0127552D01*
X0033019Y0126696D01*
X0030081Y0123758D01*
X0030005Y0123942D01*
X0029400Y0124547D01*
X0029400Y0130723D01*
X0031696Y0133019D01*
X0032552Y0133019D01*
X0033942Y0133595D01*
X0035005Y0134658D01*
X0035581Y0136048D01*
X0035581Y0137552D01*
X0035005Y0138942D01*
X0033942Y0140005D01*
X0032552Y0140581D01*
X0031048Y0140581D01*
X0029658Y0140005D01*
X0028595Y0138942D01*
X0028019Y0137552D01*
X0028019Y0136696D01*
X0025081Y0133758D01*
X0025005Y0133942D01*
X0024400Y0134547D01*
X0024400Y0135659D01*
X0027585Y0138844D01*
X0027981Y0139799D01*
X0027981Y0163197D01*
X0028942Y0163595D01*
X0030005Y0164658D01*
X0030581Y0166048D01*
X0030581Y0167552D01*
X0030005Y0168942D01*
X0028942Y0170005D01*
X0027552Y0170581D01*
X0026048Y0170581D01*
X0024658Y0170005D01*
X0023595Y0168942D01*
X0023019Y0167552D01*
X0023019Y0166472D01*
X0022781Y0165898D01*
X0022781Y0141394D01*
X0019596Y0138208D01*
X0019200Y0137253D01*
X0019200Y0134547D01*
X0018595Y0133942D01*
X0018019Y0132552D01*
X0018019Y0131048D01*
X0018595Y0129658D01*
X0019658Y0128595D01*
X0021048Y0128019D01*
X0022552Y0128019D01*
X0023942Y0128595D01*
X0024200Y0128853D01*
X0024200Y0124547D01*
X0023595Y0123942D01*
X0023019Y0122552D01*
X0023019Y0121048D01*
X0023595Y0119658D01*
X0024658Y0118595D01*
X0026048Y0118019D01*
X0027552Y0118019D01*
X0028942Y0118595D01*
X0029200Y0118853D01*
X0029200Y0114547D01*
X0028595Y0113942D01*
X0028019Y0112552D01*
X0028019Y0111048D01*
X0028595Y0109658D01*
X0029658Y0108595D01*
X0031048Y0108019D01*
X0032552Y0108019D01*
X0033942Y0108595D01*
X0035354Y0110499D02*
X0039200Y0110499D01*
X0039200Y0112097D02*
X0035581Y0112097D01*
X0035107Y0113696D02*
X0038682Y0113696D01*
X0037400Y0115294D02*
X0034400Y0115294D01*
X0034400Y0116893D02*
X0037400Y0116893D01*
X0037400Y0118491D02*
X0034400Y0118491D01*
X0034400Y0120090D02*
X0038867Y0120090D01*
X0038199Y0123287D02*
X0071491Y0123287D01*
X0071708Y0123070D02*
X0070470Y0124308D01*
X0069800Y0125925D01*
X0069800Y0127675D01*
X0070470Y0129292D01*
X0071708Y0130530D01*
X0073325Y0131200D01*
X0080275Y0131200D01*
X0081892Y0130530D01*
X0083130Y0129292D01*
X0083800Y0127675D01*
X0083800Y0125925D01*
X0083130Y0124308D01*
X0081892Y0123070D01*
X0080275Y0122400D01*
X0073325Y0122400D01*
X0071708Y0123070D01*
X0072511Y0120878D02*
X0071894Y0120563D01*
X0071334Y0120156D01*
X0070844Y0119666D01*
X0070437Y0119106D01*
X0070122Y0118489D01*
X0069908Y0117830D01*
X0069800Y0117146D01*
X0069800Y0116800D01*
X0076800Y0116800D01*
X0076800Y0116800D01*
X0076800Y0121200D01*
X0079746Y0121200D01*
X0080430Y0121092D01*
X0081089Y0120878D01*
X0081706Y0120563D01*
X0082266Y0120156D01*
X0082756Y0119666D01*
X0083163Y0119106D01*
X0083478Y0118489D01*
X0083692Y0117830D01*
X0083800Y0117146D01*
X0083800Y0116800D01*
X0076800Y0116800D01*
X0076800Y0116800D01*
X0076800Y0112400D01*
X0079746Y0112400D01*
X0080430Y0112508D01*
X0081089Y0112722D01*
X0081706Y0113037D01*
X0082266Y0113444D01*
X0082756Y0113934D01*
X0083163Y0114494D01*
X0083478Y0115111D01*
X0083692Y0115770D01*
X0083800Y0116454D01*
X0083800Y0116800D01*
X0076800Y0116800D01*
X0076800Y0116800D01*
X0076800Y0116800D01*
X0076800Y0121200D01*
X0073854Y0121200D01*
X0073170Y0121092D01*
X0072511Y0120878D01*
X0071267Y0120090D02*
X0066288Y0120090D01*
X0067053Y0118491D02*
X0070124Y0118491D01*
X0069800Y0116893D02*
X0067300Y0116893D01*
X0067129Y0115294D02*
X0070063Y0115294D01*
X0070122Y0115111D02*
X0070437Y0114494D01*
X0070844Y0113934D01*
X0071334Y0113444D01*
X0071894Y0113037D01*
X0072511Y0112722D01*
X0073170Y0112508D01*
X0073854Y0112400D01*
X0076800Y0112400D01*
X0076800Y0116800D01*
X0069800Y0116800D01*
X0069800Y0116454D01*
X0069908Y0115770D01*
X0070122Y0115111D01*
X0071082Y0113696D02*
X0066467Y0113696D01*
X0064819Y0112097D02*
X0084200Y0112097D01*
X0084200Y0110499D02*
X0081924Y0110499D01*
X0081892Y0110530D02*
X0080275Y0111200D01*
X0073325Y0111200D01*
X0071708Y0110530D01*
X0070470Y0109292D01*
X0069800Y0107675D01*
X0069800Y0105925D01*
X0070470Y0104308D01*
X0071708Y0103070D01*
X0073325Y0102400D01*
X0080275Y0102400D01*
X0081892Y0103070D01*
X0083130Y0104308D01*
X0083800Y0105925D01*
X0083800Y0107675D01*
X0083130Y0109292D01*
X0081892Y0110530D01*
X0083293Y0108900D02*
X0084200Y0108900D01*
X0084200Y0107302D02*
X0083800Y0107302D01*
X0083708Y0105703D02*
X0084200Y0105703D01*
X0084200Y0104105D02*
X0082927Y0104105D01*
X0084200Y0102506D02*
X0080532Y0102506D01*
X0080275Y0101200D02*
X0081892Y0100530D01*
X0083130Y0099292D01*
X0083800Y0097675D01*
X0083800Y0095925D01*
X0083130Y0094308D01*
X0081892Y0093070D01*
X0080275Y0092400D01*
X0073325Y0092400D01*
X0071708Y0093070D01*
X0070470Y0094308D01*
X0069800Y0095925D01*
X0069800Y0097675D01*
X0070470Y0099292D01*
X0071708Y0100530D01*
X0073325Y0101200D01*
X0080275Y0101200D01*
X0080981Y0100908D02*
X0084200Y0100908D01*
X0084200Y0099309D02*
X0083113Y0099309D01*
X0083785Y0097711D02*
X0084200Y0097711D01*
X0084200Y0096112D02*
X0083800Y0096112D01*
X0084200Y0094514D02*
X0083215Y0094514D01*
X0084200Y0092915D02*
X0081519Y0092915D01*
X0072081Y0092915D02*
X0065693Y0092915D01*
X0066806Y0094514D02*
X0070384Y0094514D01*
X0069800Y0096112D02*
X0067300Y0096112D01*
X0067300Y0097711D02*
X0069815Y0097711D01*
X0070487Y0099309D02*
X0066714Y0099309D01*
X0065470Y0100908D02*
X0072619Y0100908D01*
X0073068Y0102506D02*
X0065247Y0102506D01*
X0066599Y0104105D02*
X0070673Y0104105D01*
X0069892Y0105703D02*
X0067195Y0105703D01*
X0067289Y0107302D02*
X0069800Y0107302D01*
X0070307Y0108900D02*
X0066901Y0108900D01*
X0065879Y0110499D02*
X0071676Y0110499D01*
X0076800Y0113696D02*
X0076800Y0113696D01*
X0076800Y0115294D02*
X0076800Y0115294D01*
X0076800Y0116893D02*
X0076800Y0116893D01*
X0076800Y0118491D02*
X0076800Y0118491D01*
X0076800Y0120090D02*
X0076800Y0120090D01*
X0082333Y0120090D02*
X0084200Y0120090D01*
X0084200Y0121688D02*
X0064371Y0121688D01*
X0059229Y0121688D02*
X0035365Y0121688D01*
X0031800Y0121800D02*
X0036800Y0126800D01*
X0040361Y0128082D02*
X0069969Y0128082D01*
X0069800Y0126484D02*
X0040581Y0126484D01*
X0040100Y0124885D02*
X0070231Y0124885D01*
X0070858Y0129681D02*
X0039266Y0129681D01*
X0034334Y0129681D02*
X0029400Y0129681D01*
X0029400Y0128082D02*
X0033239Y0128082D01*
X0032807Y0126484D02*
X0029400Y0126484D01*
X0029400Y0124885D02*
X0031208Y0124885D01*
X0031800Y0121800D02*
X0031800Y0111800D01*
X0029352Y0108900D02*
X0011883Y0108900D01*
X0010879Y0110499D02*
X0028246Y0110499D01*
X0028019Y0112097D02*
X0009819Y0112097D01*
X0011467Y0113696D02*
X0028493Y0113696D01*
X0029200Y0115294D02*
X0012129Y0115294D01*
X0012300Y0116893D02*
X0029200Y0116893D01*
X0029200Y0118491D02*
X0028693Y0118491D01*
X0024907Y0118491D02*
X0012053Y0118491D01*
X0011288Y0120090D02*
X0023416Y0120090D01*
X0023019Y0121688D02*
X0009371Y0121688D01*
X0011065Y0123287D02*
X0023323Y0123287D01*
X0024200Y0124885D02*
X0011960Y0124885D01*
X0012300Y0126484D02*
X0024200Y0126484D01*
X0024200Y0128082D02*
X0022705Y0128082D01*
X0020895Y0128082D02*
X0012222Y0128082D01*
X0011560Y0129681D02*
X0018585Y0129681D01*
X0018019Y0131279D02*
X0010099Y0131279D01*
X0010656Y0132878D02*
X0018154Y0132878D01*
X0019129Y0134476D02*
X0011791Y0134476D01*
X0012300Y0136075D02*
X0019200Y0136075D01*
X0019374Y0137673D02*
X0012300Y0137673D01*
X0011729Y0139272D02*
X0013981Y0139272D01*
X0013595Y0139658D02*
X0014658Y0138595D01*
X0016048Y0138019D01*
X0017552Y0138019D01*
X0018942Y0138595D01*
X0020005Y0139658D01*
X0020581Y0141048D01*
X0020581Y0142552D01*
X0020005Y0143942D01*
X0019400Y0144547D01*
X0019400Y0169053D01*
X0020005Y0169658D01*
X0020581Y0171048D01*
X0020581Y0172552D01*
X0020005Y0173942D01*
X0018942Y0175005D01*
X0017552Y0175581D01*
X0016048Y0175581D01*
X0014658Y0175005D01*
X0013595Y0173942D01*
X0013019Y0172552D01*
X0013019Y0171048D01*
X0013595Y0169658D01*
X0014200Y0169053D01*
X0014200Y0144547D01*
X0013595Y0143942D01*
X0013019Y0142552D01*
X0013019Y0141048D01*
X0013595Y0139658D01*
X0013092Y0140870D02*
X0010508Y0140870D01*
X0010247Y0142469D02*
X0013019Y0142469D01*
X0013720Y0144068D02*
X0011621Y0144068D01*
X0012283Y0145666D02*
X0014200Y0145666D01*
X0014200Y0147265D02*
X0012300Y0147265D01*
X0011899Y0148863D02*
X0014200Y0148863D01*
X0014200Y0150462D02*
X0010917Y0150462D01*
X0009729Y0152060D02*
X0014200Y0152060D01*
X0014200Y0153659D02*
X0011437Y0153659D01*
X0012114Y0155257D02*
X0014200Y0155257D01*
X0014200Y0156856D02*
X0012300Y0156856D01*
X0012068Y0158454D02*
X0014200Y0158454D01*
X0014200Y0160053D02*
X0011326Y0160053D01*
X0009460Y0161651D02*
X0014200Y0161651D01*
X0014200Y0163250D02*
X0011019Y0163250D01*
X0011949Y0164848D02*
X0014200Y0164848D01*
X0014200Y0166447D02*
X0012300Y0166447D01*
X0012171Y0168045D02*
X0014200Y0168045D01*
X0013609Y0169644D02*
X0011524Y0169644D01*
X0010043Y0171242D02*
X0013019Y0171242D01*
X0013138Y0172841D02*
X0010619Y0172841D01*
X0011775Y0174439D02*
X0014092Y0174439D01*
X0012300Y0176038D02*
X0069800Y0176038D01*
X0069800Y0177636D02*
X0012300Y0177636D01*
X0011745Y0179235D02*
X0070446Y0179235D01*
X0072439Y0180833D02*
X0010545Y0180833D01*
X0010210Y0182432D02*
X0073248Y0182432D01*
X0070747Y0184030D02*
X0011606Y0184030D01*
X0012268Y0185629D02*
X0069923Y0185629D01*
X0069800Y0187227D02*
X0012300Y0187227D01*
X0011914Y0188826D02*
X0070277Y0188826D01*
X0071602Y0190424D02*
X0010954Y0190424D01*
X0008563Y0192023D02*
X0193850Y0192023D01*
X0193850Y0193621D02*
X0006600Y0193621D01*
X0019508Y0174439D02*
X0070415Y0174439D01*
X0072261Y0172841D02*
X0020462Y0172841D01*
X0020581Y0171242D02*
X0084200Y0171242D01*
X0084200Y0169644D02*
X0082779Y0169644D01*
X0083130Y0169292D02*
X0081892Y0170530D01*
X0080275Y0171200D01*
X0073325Y0171200D01*
X0071708Y0170530D01*
X0070470Y0169292D01*
X0069800Y0167675D01*
X0069800Y0165925D01*
X0070470Y0164308D01*
X0071708Y0163070D01*
X0073325Y0162400D01*
X0080275Y0162400D01*
X0081892Y0163070D01*
X0083130Y0164308D01*
X0083800Y0165925D01*
X0083800Y0167675D01*
X0083130Y0169292D01*
X0083647Y0168045D02*
X0084200Y0168045D01*
X0084200Y0166447D02*
X0083800Y0166447D01*
X0084200Y0164848D02*
X0083354Y0164848D01*
X0084200Y0163250D02*
X0082072Y0163250D01*
X0084200Y0161651D02*
X0027981Y0161651D01*
X0027981Y0160053D02*
X0038830Y0160053D01*
X0039977Y0161200D02*
X0037400Y0158623D01*
X0037400Y0156800D01*
X0041800Y0156800D01*
X0041800Y0156800D01*
X0041800Y0161200D01*
X0043623Y0161200D01*
X0046200Y0158623D01*
X0046200Y0156800D01*
X0041800Y0156800D01*
X0041800Y0156800D01*
X0041800Y0156800D01*
X0041800Y0161200D01*
X0039977Y0161200D01*
X0041800Y0160053D02*
X0041800Y0160053D01*
X0041800Y0158454D02*
X0041800Y0158454D01*
X0041800Y0156856D02*
X0041800Y0156856D01*
X0041800Y0156800D02*
X0037400Y0156800D01*
X0037400Y0154977D01*
X0039977Y0152400D01*
X0041800Y0152400D01*
X0043623Y0152400D01*
X0046200Y0154977D01*
X0046200Y0156800D01*
X0041800Y0156800D01*
X0041800Y0152400D01*
X0041800Y0156800D01*
X0041800Y0156800D01*
X0041800Y0155257D02*
X0041800Y0155257D01*
X0041800Y0153659D02*
X0041800Y0153659D01*
X0044881Y0153659D02*
X0071119Y0153659D01*
X0071708Y0153070D02*
X0070470Y0154308D01*
X0069800Y0155925D01*
X0069800Y0157675D01*
X0070470Y0159292D01*
X0071708Y0160530D01*
X0073325Y0161200D01*
X0080275Y0161200D01*
X0081892Y0160530D01*
X0083130Y0159292D01*
X0083800Y0157675D01*
X0083800Y0155925D01*
X0083130Y0154308D01*
X0081892Y0153070D01*
X0080275Y0152400D01*
X0073325Y0152400D01*
X0071708Y0153070D01*
X0073325Y0151200D02*
X0071708Y0150530D01*
X0070470Y0149292D01*
X0069800Y0147675D01*
X0069800Y0145925D01*
X0070470Y0144308D01*
X0071708Y0143070D01*
X0073325Y0142400D01*
X0080275Y0142400D01*
X0081892Y0143070D01*
X0083130Y0144308D01*
X0083800Y0145925D01*
X0083800Y0147675D01*
X0083130Y0149292D01*
X0081892Y0150530D01*
X0080275Y0151200D01*
X0073325Y0151200D01*
X0071639Y0150462D02*
X0027981Y0150462D01*
X0027981Y0152060D02*
X0084200Y0152060D01*
X0084200Y0150462D02*
X0081961Y0150462D01*
X0083308Y0148863D02*
X0084200Y0148863D01*
X0084200Y0147265D02*
X0083800Y0147265D01*
X0083693Y0145666D02*
X0084200Y0145666D01*
X0084200Y0144068D02*
X0082890Y0144068D01*
X0084200Y0142469D02*
X0080442Y0142469D01*
X0081071Y0140870D02*
X0084200Y0140870D01*
X0083925Y0139272D02*
X0083139Y0139272D01*
X0083200Y0134476D02*
X0083776Y0134476D01*
X0084200Y0132878D02*
X0081429Y0132878D01*
X0084200Y0131279D02*
X0029956Y0131279D01*
X0031555Y0132878D02*
X0072171Y0132878D01*
X0070400Y0134476D02*
X0034824Y0134476D01*
X0035581Y0136075D02*
X0069800Y0136075D01*
X0069800Y0137673D02*
X0035531Y0137673D01*
X0034675Y0139272D02*
X0070461Y0139272D01*
X0072529Y0140870D02*
X0027981Y0140870D01*
X0027981Y0142469D02*
X0073158Y0142469D01*
X0070710Y0144068D02*
X0027981Y0144068D01*
X0027981Y0145666D02*
X0069907Y0145666D01*
X0069800Y0147265D02*
X0027981Y0147265D01*
X0027981Y0148863D02*
X0070292Y0148863D01*
X0070077Y0155257D02*
X0046200Y0155257D01*
X0046200Y0156856D02*
X0069800Y0156856D01*
X0070123Y0158454D02*
X0046200Y0158454D01*
X0044770Y0160053D02*
X0071230Y0160053D01*
X0071528Y0163250D02*
X0028109Y0163250D01*
X0030084Y0164848D02*
X0070246Y0164848D01*
X0069800Y0166447D02*
X0030581Y0166447D01*
X0030377Y0168045D02*
X0069953Y0168045D01*
X0070821Y0169644D02*
X0029304Y0169644D01*
X0026800Y0166800D02*
X0025381Y0165381D01*
X0025381Y0140317D01*
X0021800Y0136736D01*
X0021800Y0131800D01*
X0024471Y0134476D02*
X0025800Y0134476D01*
X0024816Y0136075D02*
X0027398Y0136075D01*
X0028069Y0137673D02*
X0026415Y0137673D01*
X0027763Y0139272D02*
X0028925Y0139272D01*
X0031800Y0136800D02*
X0026800Y0131800D01*
X0026800Y0121800D01*
X0020659Y0139272D02*
X0019619Y0139272D01*
X0020508Y0140870D02*
X0022258Y0140870D01*
X0022781Y0142469D02*
X0020581Y0142469D01*
X0019880Y0144068D02*
X0022781Y0144068D01*
X0022781Y0145666D02*
X0019400Y0145666D01*
X0019400Y0147265D02*
X0022781Y0147265D01*
X0022781Y0148863D02*
X0019400Y0148863D01*
X0019400Y0150462D02*
X0022781Y0150462D01*
X0022781Y0152060D02*
X0019400Y0152060D01*
X0019400Y0153659D02*
X0022781Y0153659D01*
X0022781Y0155257D02*
X0019400Y0155257D01*
X0019400Y0156856D02*
X0022781Y0156856D01*
X0022781Y0158454D02*
X0019400Y0158454D01*
X0019400Y0160053D02*
X0022781Y0160053D01*
X0022781Y0161651D02*
X0019400Y0161651D01*
X0019400Y0163250D02*
X0022781Y0163250D01*
X0022781Y0164848D02*
X0019400Y0164848D01*
X0019400Y0166447D02*
X0023008Y0166447D01*
X0023223Y0168045D02*
X0019400Y0168045D01*
X0019991Y0169644D02*
X0024296Y0169644D01*
X0016800Y0171800D02*
X0016800Y0141800D01*
X0027981Y0153659D02*
X0038719Y0153659D01*
X0037400Y0155257D02*
X0027981Y0155257D01*
X0027981Y0156856D02*
X0037400Y0156856D01*
X0037400Y0158454D02*
X0027981Y0158454D01*
X0081339Y0172841D02*
X0084200Y0172841D01*
X0084200Y0174439D02*
X0083185Y0174439D01*
X0083800Y0176038D02*
X0084200Y0176038D01*
X0084200Y0177636D02*
X0083800Y0177636D01*
X0096800Y0186800D02*
X0096800Y0056800D01*
X0084200Y0078529D02*
X0083447Y0078529D01*
X0083400Y0080127D02*
X0082295Y0080127D01*
X0071453Y0083324D02*
X0059400Y0083324D01*
X0059400Y0084053D02*
X0060005Y0084658D01*
X0060581Y0086048D01*
X0060581Y0087552D01*
X0060005Y0088942D01*
X0058942Y0090005D01*
X0057552Y0090581D01*
X0056048Y0090581D01*
X0054658Y0090005D01*
X0053595Y0088942D01*
X0053019Y0087552D01*
X0053019Y0086048D01*
X0053595Y0084658D01*
X0054200Y0084053D01*
X0054200Y0014547D01*
X0053595Y0013942D01*
X0053019Y0012552D01*
X0053019Y0011048D01*
X0053595Y0009658D01*
X0054658Y0008595D01*
X0056048Y0008019D01*
X0057552Y0008019D01*
X0058942Y0008595D01*
X0060005Y0009658D01*
X0060581Y0011048D01*
X0060581Y0012552D01*
X0060005Y0013942D01*
X0059400Y0014547D01*
X0059400Y0084053D01*
X0060115Y0084923D02*
X0070215Y0084923D01*
X0069800Y0086521D02*
X0060581Y0086521D01*
X0060346Y0088120D02*
X0069984Y0088120D01*
X0070896Y0089718D02*
X0059229Y0089718D01*
X0056800Y0086800D02*
X0056800Y0011800D01*
X0053200Y0012990D02*
X0006600Y0012990D01*
X0006600Y0014588D02*
X0054200Y0014588D01*
X0054200Y0016187D02*
X0006600Y0016187D01*
X0006600Y0017785D02*
X0054200Y0017785D01*
X0054200Y0019384D02*
X0006600Y0019384D01*
X0006600Y0020982D02*
X0054200Y0020982D01*
X0054200Y0022581D02*
X0006600Y0022581D01*
X0006600Y0024179D02*
X0054200Y0024179D01*
X0054200Y0025778D02*
X0006600Y0025778D01*
X0006600Y0027376D02*
X0054200Y0027376D01*
X0054200Y0028975D02*
X0006600Y0028975D01*
X0006600Y0030573D02*
X0054200Y0030573D01*
X0054200Y0032172D02*
X0006600Y0032172D01*
X0006600Y0033770D02*
X0054200Y0033770D01*
X0054200Y0035369D02*
X0006600Y0035369D01*
X0006600Y0036967D02*
X0054200Y0036967D01*
X0054200Y0038566D02*
X0006600Y0038566D01*
X0006600Y0040164D02*
X0054200Y0040164D01*
X0054200Y0041763D02*
X0006600Y0041763D01*
X0006600Y0043361D02*
X0054200Y0043361D01*
X0054200Y0044960D02*
X0006600Y0044960D01*
X0006600Y0046558D02*
X0054200Y0046558D01*
X0054200Y0048157D02*
X0006600Y0048157D01*
X0006600Y0049755D02*
X0054200Y0049755D01*
X0054200Y0051354D02*
X0006600Y0051354D01*
X0006600Y0052952D02*
X0054200Y0052952D01*
X0054200Y0054551D02*
X0006600Y0054551D01*
X0006600Y0056149D02*
X0054200Y0056149D01*
X0054200Y0057748D02*
X0006600Y0057748D01*
X0006600Y0059346D02*
X0054200Y0059346D01*
X0054200Y0060945D02*
X0006600Y0060945D01*
X0007000Y0061300D02*
X0007233Y0061300D01*
X0008088Y0061435D01*
X0008911Y0061703D01*
X0009683Y0062096D01*
X0010383Y0062605D01*
X0010995Y0063217D01*
X0011504Y0063917D01*
X0011897Y0064689D01*
X0012165Y0065512D01*
X0012300Y0066367D01*
X0012300Y0066600D01*
X0007000Y0066600D01*
X0007000Y0061300D01*
X0007000Y0062543D02*
X0006600Y0062543D01*
X0006600Y0064142D02*
X0007000Y0064142D01*
X0007000Y0065740D02*
X0006600Y0065740D01*
X0010298Y0062543D02*
X0039834Y0062543D01*
X0038236Y0064142D02*
X0011618Y0064142D01*
X0012201Y0065740D02*
X0037400Y0065740D01*
X0037400Y0067339D02*
X0012283Y0067339D01*
X0011884Y0068937D02*
X0037715Y0068937D01*
X0044287Y0070536D02*
X0054200Y0070536D01*
X0054200Y0068937D02*
X0045885Y0068937D01*
X0046200Y0067339D02*
X0054200Y0067339D01*
X0054200Y0065740D02*
X0046200Y0065740D01*
X0045364Y0064142D02*
X0054200Y0064142D01*
X0054200Y0062543D02*
X0043766Y0062543D01*
X0046200Y0075332D02*
X0054200Y0075332D01*
X0054200Y0076930D02*
X0046200Y0076930D01*
X0046200Y0078529D02*
X0054200Y0078529D01*
X0054200Y0080127D02*
X0044695Y0080127D01*
X0044400Y0081726D02*
X0054200Y0081726D01*
X0054200Y0083324D02*
X0044400Y0083324D01*
X0044400Y0084923D02*
X0053485Y0084923D01*
X0053019Y0086521D02*
X0044400Y0086521D01*
X0044400Y0088120D02*
X0053254Y0088120D01*
X0054371Y0089718D02*
X0044400Y0089718D01*
X0082518Y0113696D02*
X0084200Y0113696D01*
X0084200Y0115294D02*
X0083537Y0115294D01*
X0083800Y0116893D02*
X0084200Y0116893D01*
X0084200Y0118491D02*
X0083476Y0118491D01*
X0084200Y0123287D02*
X0082109Y0123287D01*
X0083369Y0124885D02*
X0084200Y0124885D01*
X0084200Y0126484D02*
X0083800Y0126484D01*
X0083631Y0128082D02*
X0084200Y0128082D01*
X0084200Y0129681D02*
X0082742Y0129681D01*
X0099400Y0118491D02*
X0100138Y0118491D01*
X0099800Y0116893D02*
X0099400Y0116893D01*
X0099400Y0115294D02*
X0100061Y0115294D01*
X0099400Y0113696D02*
X0101082Y0113696D01*
X0101119Y0153659D02*
X0099400Y0153659D01*
X0099400Y0155257D02*
X0100077Y0155257D01*
X0099800Y0156856D02*
X0099400Y0156856D01*
X0099400Y0158454D02*
X0100123Y0158454D01*
X0099400Y0160053D02*
X0101230Y0160053D01*
X0094200Y0164848D02*
X0094099Y0164848D01*
X0084200Y0160053D02*
X0082370Y0160053D01*
X0083477Y0158454D02*
X0084200Y0158454D01*
X0084200Y0156856D02*
X0083800Y0156856D01*
X0083523Y0155257D02*
X0084200Y0155257D01*
X0084200Y0153659D02*
X0082481Y0153659D01*
X0100053Y0188826D02*
X0100277Y0188826D01*
X0101602Y0190424D02*
X0097931Y0190424D01*
X0193600Y0066600D02*
X0193850Y0066600D01*
X0193850Y0055243D01*
X0193573Y0055913D01*
X0192841Y0056645D01*
X0190699Y0058787D01*
X0190699Y0062254D01*
X0190917Y0062096D01*
X0191689Y0061703D01*
X0192512Y0061435D01*
X0193367Y0061300D01*
X0193600Y0061300D01*
X0193600Y0066600D01*
X0193600Y0065740D02*
X0193850Y0065740D01*
X0193850Y0064142D02*
X0193600Y0064142D01*
X0193600Y0062543D02*
X0193850Y0062543D01*
X0193850Y0060945D02*
X0190699Y0060945D01*
X0190699Y0059346D02*
X0193850Y0059346D01*
X0193850Y0057748D02*
X0191738Y0057748D01*
X0193336Y0056149D02*
X0193850Y0056149D01*
X0191369Y0043338D02*
X0186800Y0038770D01*
X0186800Y0036800D01*
X0111800Y0021800D02*
X0101800Y0021800D01*
X0101800Y0011800D01*
X0101600Y0012990D02*
X0102000Y0012990D01*
X0102000Y0014588D02*
X0101600Y0014588D01*
X0101600Y0016187D02*
X0102000Y0016187D01*
X0087305Y0020982D02*
X0059400Y0020982D01*
X0059400Y0019384D02*
X0085707Y0019384D01*
X0084108Y0017785D02*
X0059400Y0017785D01*
X0059400Y0016187D02*
X0078408Y0016187D01*
X0077002Y0014588D02*
X0059400Y0014588D01*
X0060400Y0012990D02*
X0076340Y0012990D01*
X0076300Y0011391D02*
X0060581Y0011391D01*
X0060061Y0009793D02*
X0076678Y0009793D01*
X0077628Y0008194D02*
X0057975Y0008194D01*
X0055625Y0008194D02*
X0006600Y0008194D01*
X0006600Y0009793D02*
X0053539Y0009793D01*
X0053019Y0011391D02*
X0006600Y0011391D01*
D19*
X0056800Y0011800D03*
X0066800Y0056800D03*
X0086800Y0081800D03*
X0056800Y0086800D03*
X0031800Y0111800D03*
X0026800Y0121800D03*
X0021800Y0131800D03*
X0016800Y0141800D03*
X0031800Y0136800D03*
X0036800Y0126800D03*
X0026800Y0166800D03*
X0016800Y0171800D03*
X0086800Y0181800D03*
X0096800Y0186800D03*
X0091800Y0161800D03*
X0086800Y0136800D03*
X0136800Y0136800D03*
X0136800Y0126800D03*
X0141800Y0111800D03*
X0151800Y0106800D03*
X0151800Y0096800D03*
X0151800Y0086800D03*
X0136800Y0086800D03*
X0136800Y0076800D03*
X0136800Y0066800D03*
X0121800Y0081800D03*
X0166800Y0061800D03*
X0126800Y0021800D03*
X0111800Y0021800D03*
X0181800Y0121800D03*
X0166800Y0146800D03*
M02*
