G75*
%MOIN*%
%OFA0B0*%
%FSLAX25Y25*%
%IPPOS*%
%LPD*%
%AMOC8*
5,1,8,0,0,1.08239X$1,22.5*
%
%ADD10C,0.00000*%
%ADD11C,0.00600*%
%ADD12C,0.00500*%
D10*
X0001800Y0001800D02*
X0001800Y0198650D01*
X0198650Y0198650D01*
X0198650Y0001800D01*
X0001800Y0001800D01*
D11*
X0148928Y0008168D02*
X0148928Y0009235D01*
X0149996Y0010303D01*
X0153198Y0010303D01*
X0153198Y0008168D01*
X0152131Y0007100D01*
X0149996Y0007100D01*
X0148928Y0008168D01*
X0151063Y0012438D02*
X0148928Y0013505D01*
X0151063Y0012438D02*
X0153198Y0010303D01*
X0161806Y0007100D02*
X0163941Y0007100D01*
X0162873Y0007100D02*
X0162873Y0013505D01*
X0163941Y0013505D01*
X0167170Y0013505D02*
X0167170Y0014573D01*
X0167170Y0011370D02*
X0167170Y0007100D01*
X0166103Y0007100D02*
X0168238Y0007100D01*
X0168238Y0011370D02*
X0167170Y0011370D01*
X0170406Y0011370D02*
X0171474Y0011370D01*
X0173609Y0009235D01*
X0173609Y0007100D02*
X0173609Y0011370D01*
X0175784Y0010303D02*
X0175784Y0008168D01*
X0176852Y0007100D01*
X0180055Y0007100D01*
X0180055Y0004965D02*
X0180055Y0011370D01*
X0176852Y0011370D01*
X0175784Y0010303D01*
X0182230Y0010303D02*
X0186500Y0010303D01*
X0186500Y0011370D02*
X0184365Y0013505D01*
X0182230Y0011370D01*
X0182230Y0007100D01*
X0186500Y0007100D02*
X0186500Y0011370D01*
D12*
X0197154Y0161131D02*
X0166446Y0161131D01*
X0166446Y0196564D01*
X0197154Y0196564D01*
X0197154Y0161131D01*
X0184753Y0174910D02*
X0178847Y0174910D01*
X0176879Y0194595D01*
X0173926Y0194595D02*
X0175894Y0176879D01*
X0168020Y0176879D02*
X0169989Y0194595D01*
X0173926Y0194595D01*
X0186721Y0194595D02*
X0184753Y0174910D01*
X0187706Y0178847D02*
X0189674Y0194595D01*
X0193611Y0194595D01*
X0195580Y0178847D01*
M02*
