%
M48
M72
T01C0.02362
T02C0.03150
T03C0.03200
T04C0.03937
T05C0.04000
T06C0.07480
%
T01
X56800Y11800
X66800Y56800
X86800Y81800
X56800Y86800
X31800Y111800
X26800Y121800
X21800Y131800
X16800Y141800
X31800Y136800
X36800Y126800
X26800Y166800
X16800Y171800
X86800Y181800
X96800Y186800
X91800Y161800
X86800Y136800
X136800Y136800
X136800Y126800
X141800Y111800
X151800Y106800
X151800Y96800
X151800Y86800
X136800Y86800
X136800Y76800
X136800Y66800
X121800Y81800
X166800Y61800
X126800Y21800
X111800Y21800
X181800Y121800
X166800Y146800
T02
X175501Y161721
X178650Y166446
X181800Y161721
X184950Y166446
X188099Y161721
X186800Y44674
X186800Y36800
X186800Y28926
T03
X41800Y66800
X41800Y76800
X76800Y76800
X76800Y66800
X76800Y56800
X71800Y41800
X71800Y31800
X106800Y56800
X106800Y66800
X106800Y76800
X106800Y86800
X106800Y96800
X106800Y106800
X106800Y116800
X106800Y126800
X106800Y136800
X106800Y146800
X106800Y156800
X106800Y166800
X106800Y176800
X106800Y186800
X131800Y186800
X131800Y166800
X151800Y156800
X151800Y176800
X151800Y186800
X151800Y116800
X126800Y116800
X126800Y96800
X156800Y71800
X166800Y71800
X161800Y56800
X169300Y51800
X161800Y46800
X136800Y46800
X126800Y46800
X126800Y56800
X136800Y56800
X111800Y41800
X111800Y31800
X126800Y31800
X136800Y31800
X76800Y86800
X76800Y96800
X76800Y106800
X76800Y116800
X76800Y126800
X76800Y136800
X76800Y146800
X76800Y156800
X76800Y166800
X76800Y176800
X76800Y186800
X41800Y156800
X41800Y116800
T04
X186800Y52548
X186800Y21052
T05
X6800Y66800
X6800Y76800
X6800Y86800
X6800Y96800
X6800Y106800
X6800Y116800
X6800Y126800
X6800Y136800
X6800Y146800
X6800Y156800
X6800Y166800
X6800Y176800
X6800Y186800
X61800Y116800
X61800Y106800
X61800Y96800
X81800Y11800
X101800Y11800
X126800Y11800
X146800Y11800
X193800Y66800
X193800Y76800
X193800Y86800
X193800Y96800
X193800Y106800
X193800Y116800
X193800Y126800
X193800Y136800
T06
X167430Y181800
X196170Y181800
M30
